<svg xml:space="preserve" style="enable-background:new 0 0 1024 1024;" viewBox="0 0 1024 1024" y="0px" x="0px" xmlns:xlink="http://www.w3.org/1999/xlink" xmlns="http://www.w3.org/2000/svg" id="图层_1" version="1.1">
<style type="text/css">
	.st0{fill:none;stroke:#FFDCAF;stroke-width:2;}
	.st1{fill:none;stroke:#FDDAEF;stroke-width:2;}
	.st2{fill:none;stroke:#D0B8D2;stroke-width:2;}
	.st3{fill:none;stroke:#EAC6DA;stroke-width:2;}
	.st4{fill:none;stroke:#FFEFF2;stroke-width:2;}
	.st5{fill:none;stroke:#8DB6CA;stroke-width:2;}
	.st6{fill:none;stroke:#ACE0EB;stroke-width:2;}
	.st7{fill:none;stroke:#FFBEA8;stroke-width:2;}
	.st8{fill:none;stroke:#FFC8D2;stroke-width:2;}
	.st9{fill:none;stroke:#C9F4ED;stroke-width:2;}
	.st10{fill:none;stroke:#9FA7C3;stroke-width:2;}
	.st11{fill:none;stroke:#A8AFC8;stroke-width:2;}
	.st12{fill:none;stroke:#AEE8E8;stroke-width:2;}
	.st13{fill:none;stroke:#ADBACE;stroke-width:2;}
	.st14{fill:none;stroke:#EBF7FD;stroke-width:2;}
	.st15{fill:none;stroke:#F69BB1;stroke-width:2;}
	.st16{fill:none;stroke:#88BFD6;stroke-width:2;}
	.st17{fill:none;stroke:#F0B4D5;stroke-width:2;}
	.st18{fill:none;stroke:#F8B7C8;stroke-width:2;}
	.st19{fill:none;stroke:#C6F0DC;stroke-width:2;}
	.st20{fill:none;stroke:#D9F3CF;stroke-width:2;}
	.st21{fill:none;stroke:#C1DADB;stroke-width:2;}
	.st22{fill:none;stroke:#8C8FA3;stroke-width:2;}
	.st23{fill:none;stroke:#F9F1EB;stroke-width:2;}
	.st24{fill:none;stroke:#AED8DB;stroke-width:2;}
	.st25{fill:none;stroke:#FFCCA1;stroke-width:2;}
	.st26{fill:none;stroke:#75D9C5;stroke-width:2;}
	.st27{fill:none;stroke:#5CA3B7;stroke-width:2;}
	.st28{fill:none;stroke:#AEC598;stroke-width:2;}
	.st29{fill:none;stroke:#FDB69F;stroke-width:2;}
	.st30{fill:none;stroke:#88DCB8;stroke-width:2;}
	.st31{fill:none;stroke:#73ABAB;stroke-width:2;}
	.st32{fill:none;stroke:#6389A4;stroke-width:2;}
	.st33{fill:none;stroke:#599BBA;stroke-width:2;}
	.st34{fill:none;stroke:#ACAAC0;stroke-width:2;}
	.st35{fill:none;stroke:#CE92C2;stroke-width:2;}
	.st36{fill:none;stroke:#5BC9D4;stroke-width:2;}
	.st37{fill:none;stroke:#4E90AC;stroke-width:2;}
	.st38{fill:none;stroke:#9E97B5;stroke-width:2;}
	.st39{fill:none;stroke:#EAE7EF;stroke-width:2;}
	.st40{fill:none;stroke:#C8E4E0;stroke-width:2;}
	.st41{fill:none;stroke:#ABD0DE;stroke-width:2;}
	.st42{fill:none;stroke:#EAB6CD;stroke-width:2;}
	.st43{fill:none;stroke:#FDCAE2;stroke-width:2;}
	.st44{fill:none;stroke:#7CBEB3;stroke-width:2;}
	.st45{fill:none;stroke:#65B7BF;stroke-width:2;}
	.st46{fill:none;stroke:#79689B;stroke-width:2;}
	.st47{fill:none;stroke:#D0777A;stroke-width:2;}
	.st48{fill:none;stroke:#705F95;stroke-width:2;}
	.st49{fill:none;stroke:#7D98BE;stroke-width:2;}
	.st50{fill:none;stroke:#D0A8C4;stroke-width:2;}
	.st51{fill:none;stroke:#BB7FAD;stroke-width:2;}
	.st52{fill:none;stroke:#9999AE;stroke-width:2;}
	.st53{fill:none;stroke:#2B3767;stroke-width:2;}
	.st54{fill:none;stroke:#8A9FC0;stroke-width:2;}
	.st55{fill:none;stroke:#7787A1;stroke-width:2;}
	.st56{fill:none;stroke:#ADD2D8;stroke-width:2;}
	.st57{fill:none;stroke:#F67761;stroke-width:2;}
	.st58{fill:none;stroke:#EBD4AC;stroke-width:2;}
	.st59{fill:none;stroke:#AABADB;stroke-width:2;}
	.st60{fill:none;stroke:#97A7C6;stroke-width:2;}
	.st61{fill:none;stroke:#A86E71;stroke-width:2;}
	.st62{fill:none;stroke:#4B87AF;stroke-width:2;}
	.st63{fill:none;stroke:#75D4D9;stroke-width:2;}
	.st64{fill:none;stroke:#ACA9BE;stroke-width:2;}
	.st65{fill:none;stroke:#9F666B;stroke-width:2;}
	.st66{fill:none;stroke:#689BB1;stroke-width:2;}
	.st67{fill:none;stroke:#86818F;stroke-width:2;}
	.st68{fill:none;stroke:#97D8E9;stroke-width:2;}
	.st69{fill:none;stroke:#3A97B6;stroke-width:2;}
	.st70{fill:none;stroke:#62AEC2;stroke-width:2;}
	.st71{fill:none;stroke:#A1C6D3;stroke-width:2;}
	.st72{fill:none;stroke:#78A9B1;stroke-width:2;}
	.st73{fill:none;stroke:#B6CED6;stroke-width:2;}
	.st74{fill:none;stroke:#B6AA85;stroke-width:2;}
	.st75{fill:none;stroke:#79AEC7;stroke-width:2;}
	.st76{fill:none;stroke:#9F8372;stroke-width:2;}
	.st77{fill:none;stroke:#8A6A93;stroke-width:2;}
	.st78{fill:none;stroke:#FDA3C2;stroke-width:2;}
	.st79{fill:none;stroke:#8B91BA;stroke-width:2;}
	.st80{fill:none;stroke:#C9BDC0;stroke-width:2;}
	.st81{fill:none;stroke:#F9CE9A;stroke-width:2;}
	.st82{fill:none;stroke:#C1B78A;stroke-width:2;}
	.st83{fill:none;stroke:#7974AC;stroke-width:2;}
	.st84{fill:none;stroke:#9D94C1;stroke-width:2;}
	.st85{fill:none;stroke:#A782AC;stroke-width:2;}
	.st86{fill:none;stroke:#F0737E;stroke-width:2;}
	.st87{fill:none;stroke:#35A0C2;stroke-width:2;}
	.st88{fill:none;stroke:#B68D7E;stroke-width:2;}
	.st89{fill:none;stroke:#FF9B57;stroke-width:2;}
	.st90{fill:none;stroke:#8D7572;stroke-width:2;}
	.st91{fill:none;stroke:#AC9F94;stroke-width:2;}
	.st92{fill:none;stroke:#C3E6D9;stroke-width:2;}
	.st93{fill:none;stroke:#C9D09D;stroke-width:2;}
	.st94{fill:none;stroke:#57ABB8;stroke-width:2;}
	.st95{fill:none;stroke:#F2A9B4;stroke-width:2;}
	.st96{fill:none;stroke:#975F8C;stroke-width:2;}
	.st97{fill:none;stroke:#87A8B5;stroke-width:2;}
	.st98{fill:none;stroke:#866E93;stroke-width:2;}
	.st99{fill:none;stroke:#A7A0B1;stroke-width:2;}
	.st100{fill:none;stroke:#954275;stroke-width:2;}
	.st101{fill:none;stroke:#ACBC9B;stroke-width:2;}
	.st102{fill:none;stroke:#72A4B6;stroke-width:2;}
	.st103{fill:none;stroke:#78DDD6;stroke-width:2;}
	.st104{fill:none;stroke:#52B4C4;stroke-width:2;}
	.st105{fill:none;stroke:#9F4B7A;stroke-width:2;}
	.st106{fill:none;stroke:#A16791;stroke-width:2;}
	.st107{fill:none;stroke:#8A6E9E;stroke-width:2;}
	.st108{fill:none;stroke:#E1628C;stroke-width:2;}
	.st109{fill:none;stroke:#D7CEBF;stroke-width:2;}
	.st110{fill:#FEDFE4;}
	.st111{fill:#B3E79E;}
	.st112{fill:#FFB85E;}
	.st113{fill:#5DD1D1;}
	.st114{fill:#8CE0B9;}
	.st115{fill:#FBB4DF;}
	.st116{fill:#A170A4;}
	.st117{fill:#FFFFFF;}
	.st118{fill:#D58DB5;}
	.st119{fill:#58C0D7;}
	.st120{fill:#3E4E86;}
	.st121{fill:#5A759C;}
	.st122{fill:#FF7D50;}
	.st123{fill:#FF91A5;}
	.st124{fill:#515F91;}
	.st125{fill:#92E8DB;}
	.st126{fill:#1B6D94;}
	.st127{fill:#EC3663;}
	.st128{fill:#F3E3D6;}
	.st129{fill:#117FAC;}
	.st130{fill:#F06F91;}
	.st131{fill:#D6EFFA;}
	.st132{fill:#E168AB;}
	.st133{fill:#6C9CAC;}
	.st134{fill:#83B5B6;}
	.st135{fill:#181F47;}
</style>
<g>
	<g>
		<path d="M245.7,339.6l-150-36.9c-0.8-0.2-1.2,0.1-1.3,0.9
			c-1.3,12.6-1,25.2,0.9,37.9" class="st0"></path>
		<path d="M95.4,341.5l2.8,5" class="st1"></path>
		<path d="M98.2,346.5l13.4,26.6c0.8,1.5,2.2,2.6,3.8,3l79,19.2" class="st2"></path>
		<path d="M194.4,395.4l4.5,9.3" class="st3"></path>
		<path d="M198.9,404.6c-2.3,2.4-3.4,4.9-3.5,7.6c-0.1,20.3-0.3,40.7-0.3,61
			c0,0.7,0.2,1.3,0.7,1.8c1.1,1.2,1.5,2.5,1.5,4" class="st4"></path>
		<path d="M197.3,479.1l-135.7-0.2c-0.8,0-1.3,0.4-1.4,1.3
			c-1.3,11.9-0.9,23,1.4,33.3" class="st1"></path>
		<path d="M61.5,513.4l13.3,6.2" class="st5"></path>
		<path d="M74.8,519.5c1.3,3.1,1.9,6.9,1.7,11.4c0,0.7,0.5,1.3,1.2,1.3c0,0,0,0,0,0
			l178.8-0.2" class="st6"></path>
		<path d="M256.6,532.1l86.9,0.8c0.8,0,1.2-0.4,1.2-1.2l-0.6-11.5" class="st7"></path>
		<path d="M344.2,520.1c0.8-1.7,1.2-3.9,1.2-6.7" class="st5"></path>
		<path d="M345.4,513.4c1.5-1.7,2.9-2.3,4.1-1.7" class="st1"></path>
		<path d="M349.5,511.7l0.3,26.4c0,0.7,0.6,1.2,1.3,1.2l70.5,0" class="st8"></path>
		<path d="M421.6,539.3l84.7,0" class="st9"></path>
		<path d="M506.3,539.2l22.1,0.3" class="st10"></path>
		<path d="M528.4,539.6c1.2,0.3,2.9,0.5,5.2,0.5c34.6,0.9,71,0.7,109.4-0.7" class="st7"></path>
		<path d="M642.9,539.4L812,539" class="st11"></path>
		<path d="M812,539c6.8,0.4,12.6,0.1,17.3-0.9c6.4-1.4,15.7-4.3,28-8.6" class="st2"></path>
		<path d="M857.2,529.5c-0.7,1.5,0.9,1.1,4.8-1.4" class="st1"></path>
		<path d="M862,528.1c2.1-0.6,3.3-2.1,3.5-4.6c1-10.9,0.4-22.2-1.8-33.9" class="st0"></path>
		<path d="M863.7,489.6l17.9-32.5" class="st12"></path>
		<path d="M881.6,457.1l0,224.3" class="st13"></path>
		<path d="M881.7,681.4c-4.4,0.3-8.5-0.7-12.4-2.8c-0.6-0.3-0.9-0.9-0.9-1.6
			l-0.1-126.2c0-2-1.6-3.6-3.6-3.6l-41.1-0.4" class="st4"></path>
		<path d="M823.5,547l-10.1,1.3" class="st1"></path>
		<path d="M813.4,548.3l-47-0.4c-0.3,0-0.5,0.2-0.5,0.5l0.2,8.2
			c0,0.4,0.2,0.5,0.6,0.5h47.2" class="st6"></path>
		<path d="M813.9,557.1c1.5-0.4,2.5-0.2,3.1,0.6c0.4,0.6,0.4,1.4-0.1,2
			c-0.8,0.9-2,1.3-3.6,1.2" class="st4"></path>
		<path d="M813.4,560.9h-47c-0.3,0-0.5,0.1-0.5,0.4l0.1,8.2c0,0.3,0.3,0.6,0.6,0.6
			l0,0l46.2,0.2" class="st6"></path>
		<path d="M812.8,570.4c1.4,2.2,1.4,3.6,0.1,4.3" class="st4"></path>
		<path d="M812.9,574.7l-45.5-0.8c-0.6,0-1.1,0.5-1.1,1l-0.5,7.2c0,0.7,0.3,1,0.9,1
			l46.7,0.5" class="st9"></path>
		<path d="M813.4,583.6l0.9,0.4c0.7,0.3,1,0.8,1,1.5c0,1.4-0.6,2.3-1.8,2.8" class="st4"></path>
		<path d="M813.6,588.3c-0.4-0.6-1-0.8-1.7-0.9c-14-0.3-28.7-0.5-44.3-0.8
			c-0.9,0-1.7,0.7-1.7,1.7c0,0.1,0,0.1,0,0.2l0.4,6.3c0.1,1.1,0.7,1.6,1.7,1.6l45.3-0.1" class="st9"></path>
		<path d="M813.3,596.3c1.1,0.1,1.7,0.7,2,1.9c0.2,0.8-0.4,1.6-1.2,1.8c0,0,0,0,0,0
			l-3.6,0.6" class="st4"></path>
		<path d="M810.4,600.7L643,600.6" class="st12"></path>
		<path d="M643,600.6c-11-0.5-21.9-0.5-32.8-0.1c-2.7,0.1-7.8,0-15.6-0.5
			c-5.6-0.3-10.8,0.1-15.8,1.4" class="st0"></path>
		<path d="M578.8,601.4c-24-0.7-47.6-1.2-70.8-1.6c-1.1,0-1.9,0.3-2.5,1" class="st10"></path>
		<path d="M505.6,600.8c-7.9-0.9-14.8-0.7-20.8,0.4" class="st14"></path>
		<path d="M484.8,601.3l-51.5-0.8c-0.5,0-1,0.4-1,1c0,0.2,0.1,0.4,0.2,0.6
			c1.5,1.9,2.4,2.1,2.9,0.5" class="st10"></path>
		<path d="M435.4,602.6c0.6,1.2,0,2.1-1.9,2.7" class="st14"></path>
		<path d="M433.5,605.3l-85.9-0.4c-0.7,0-1.3-0.3-1.8-0.8c-1.1-1.3-1.1-2,0.2-2" class="st0"></path>
		<path d="M346,602.1c-16.3-1.7-32.3-1.9-48-0.6" class="st15"></path>
		<path d="M298,601.5c-14.3-1.7-28.2-1.6-41.4,0.1" class="st0"></path>
		<path d="M256.6,601.6c-17.3-1.4-34.3-1.9-51.1-1.3c-1.1,0-1.4,0.6-1.1,1.6
			c0.7,2,1,2.3,0.9,1" class="st10"></path>
		<path d="M205.2,602.8c0.3,0.4,0.4,0.7,0.6,1c0.4,0.8,0.2,1.3-0.8,1.3l-132.8,0
			c-1.4,0-2.6,1.2-2.6,2.6c0,0,0,0.1,0,0.1l0.1,2.4c0,1.4,1.2,2.5,2.5,2.5l750.1-0.4" class="st0"></path>
		<path d="M822.4,612.3c2-0.3,3.6-0.1,4.7,0.7c0.6,0.4,0.9,1,0.8,1.7
			c-1.4,16.9,1.3,22.1-16.7,28.7c-9.5,3.5-21.9,2.2-31.9,2.1c-2,0-3.7,1.6-3.8,3.6l-1.3,22.6c-0.1,1.8,1.3,3.3,3.1,3.4c0,0,0,0,0,0
			l8.9,0.4c2.4,0.1,4.2,2.1,4.1,4.4l-0.9,44.2c0,2.4-2,4.3-4.4,4.3l-10.8-0.1" class="st4"></path>
		<path d="M774.3,728.3c-9.9-0.1-19.8-0.3-29.8-0.6c-2.6-0.1-5.6,0.4-8.8,1.5
			c-6.5,2.2-14.2,3.3-23.3,3.3c-15.4,0.1-30.9,0.2-46.4,0.3c-0.7,0-1.1-0.3-1.3-0.9l-0.3-1.2c-0.1-0.4-0.5-0.6-0.8-0.5
			c-0.1,0-0.2,0.1-0.3,0.2l-1.7,1.6c-0.4,0.3-0.8,0.5-1.3,0.5c-20.3,0.4-40.6,0.4-60.8,0c-3.3-0.1-6.9-0.7-10.7-1.9
			c-4.6-1.4-8.1-2.2-10.7-2.4c-14.7-0.9-28.6-0.8-41.6,0.5c-3,0.3-4.6-1.1-4.7-4.1l-0.8-29.4" class="st14"></path>
		<path d="M531.1,695.2l0.5-18.3c0-0.7,0.3-1,1-1c78.4-2.8,156.7-3,235.1-0.5
			c1.7,0.1,3.2-1.3,3.2-3c0,0,0,0,0,0l0.5-30.7" class="st6"></path>
		<path d="M771.4,641.5c17.8,0.1,34.5,2.7,49.6-7.5c0.3-0.2,0.3-0.6,0.1-0.9
			c-0.1-0.2-0.3-0.2-0.5-0.3l-337.2,0" class="st16"></path>
		<path d="M483.4,632.8l-410-0.3c-0.2,0-0.4,0.2-0.4,0.4c0,0.1,0,0.2,0.1,0.3
			c4.5,5.7,9.4,8.3,17.2,8.3c27.9,0,55.8,0,83.7,0c1.4,0,2.1,0.3,2.2,0.8" class="st17"></path>
		<path d="M176.1,642.3c-0.3,0.5-0.6,0.9-0.8,1.2c-0.2,0.4-0.3,0.8-0.4,1.4
			c-0.3,13.5-0.4,27-0.3,40.5" class="st6"></path>
		<path d="M174.6,685.4c-0.2,24.5-0.3,48.9-0.4,73.4c0,1.9,0.4,4.2,1.3,7
			c1.1,3.7,0.8,6.2-1,7.5" class="st9"></path>
		<path d="M174.5,773.4c-4.1-2.6-6.3-2.6-6.5,0.1c-0.1,0.8,0.3,1.5,0.9,1.9
			c5.5,3.6,11.2,6.9,17,9.7c2.9,1.4,6.1,2,9.7,2c10.8-0.2,21.7,0,32.7,0.4" class="st5"></path>
		<path d="M228.3,787.6c-12.9,1.2-25,1.3-36.2,0.3c-22.1-1.9-43.2-2.5-63.4-1.8" class="st18"></path>
		<path d="M128.7,786c2.5-1.1,5-1.6,7-3.6c8.1-7.8,16.4-15.2,24.8-22.3
			c3.4-2.9,3.9-6.2,1.3-9.9l-0.4-0.6c-1.7-2.5-5.1-3.1-7.6-1.4c-0.3,0.2-0.5,0.4-0.7,0.6l-18.1,17.6c-0.2,0.2-0.3,0.2-0.5,0
			l-0.4-0.4c-0.2-0.2-0.2-0.4,0-0.6l17.2-23c2.5-3.3,2-6.2-1.4-8.6l-1-0.7c-3.3-2.3-6.1-1.9-8.6,1.3c-4.4,5.6-8.1,11.6-11.3,18
			c-0.2,0.5-0.6,0.6-1.1,0.4l-0.6-0.3c-0.3-0.2-0.4-0.4-0.2-0.7l24.6-52c1.7-3.7,0.8-6.5-2.9-8.3l-0.7-0.3c-3.5-1.8-6-0.8-7.4,2.9
			c-4.3,11.3-7.7,22.5-10,33.4c-1.2,5.7-2.7,10.6-4.4,14.5c-1.1,2.5-1.4,2.4-0.9-0.3l4.6-25.8" class="st12"></path>
		<path d="M129.9,715.8l3.9-28.9c0.8-5.7-1.7-8.8-7.4-9.2l-1-0.1
			c-5.6-0.5-8.5,2.1-8.7,7.7l-1.2,31.2" class="st19"></path>
		<path d="M115.4,716.5l-1.3,26.9c0,0.4-0.2,0.5-0.6,0.5l-0.6,0
			c-0.1,0-0.2-0.1-0.2-0.2l-2.4-25.2" class="st12"></path>
		<path d="M110.3,718.5l-1.8-47.1c-0.1-3.8-2.1-5.6-5.9-5.4l-4.9,0.2
			c-3.9,0.2-5.7,2.2-5.3,6.2l5.5,54" class="st20"></path>
		<path d="M97.8,726.4l2.2,14.7c0.1,0.3-0.1,0.7-0.5,0.7s-0.7-0.1-0.7-0.5
			c-4.8-17.7-10.6-34.6-17.6-50.8c-1.1-2.5-2.2-4.4-3.4-5.6c-0.4-0.3-0.9-0.3-1.3,0c-0.2,0.2-0.3,0.5-0.2,0.8l12.3,52
			c1.6,6.6,0.9,6.8-2.1,0.7l-5.1-10.7" class="st12"></path>
		<path d="M81.3,727.8l-13.9-27c-2.5-4.9-6.1-5.8-10.7-2.9l-1.9,1.2
			c-4.7,2.9-5.5,6.7-2.5,11.4l17.8,27.3" class="st19"></path>
		<path d="M70.1,737.9l21.7,34.5c0.2,0.3,0.1,0.6-0.2,0.8
			c-0.2,0.1-0.5,0.1-0.7-0.1l-34.2-32.8c-3.7-3.6-7.1-3.3-10.3,0.8l-1.3,1.7c-2.9,3.8-2.5,7.1,1.3,10c11.1,8.6,22.8,17.5,34.9,26.8
			c1.9,1.5,3.7,2.6,5.5,3.6c1.9,0.9,3.8,1.9,5.9,2.8" class="st12"></path>
		<path d="M92.8,785.9c-9.9-0.1-19.7,0-29.5,0.1c-10.6,0.2-18.7,3.1-27.9,7.4
			c-0.4,0.2-0.5,0.7-0.3,1c0.1,0.3,0.4,0.4,0.7,0.4l279.2-0.7c0.7,0,1.2-0.3,1.6-0.8c0.7-0.9,1.6-1.4,2.8-1.6" class="st18"></path>
		<path d="M319.4,791.8c3.8-1.1,6.6-4.8,8.3-11.2" class="st10"></path>
		<path d="M327.7,780.6c3.4,1.8,7.1,2.8,10.9,2.8c48.8,0.1,98.8,0,150-0.3
			c1.4,0,2.6-1.2,2.6-2.6c0-0.2,0-0.4-0.1-0.6c-0.7-2.7-2.2-4.9-4.4-6.4c-0.6-0.4-1.3-0.6-2-0.6l-150.1-0.6" class="st0"></path>
		<path d="M334.6,772.3c0.7-1.6,1.6-2.6,2.5-3.1" class="st10"></path>
		<path d="M337.1,769.2c4.5,1.8,6.8,1.1,6.9-2c0.7-19.8,0.6-44-0.1-72.4" class="st9"></path>
		<path d="M343.9,694.8l0.3-52.5" class="st6"></path>
		<path d="M344.1,642.4c1.4-1.4,3.2-1.4,5.5-0.1" class="st17"></path>
		<path d="M349.6,642.3l0,56.7" class="st7"></path>
		<path d="M349.6,699l-0.1,69.3c0,0.8,0.4,1.2,1.1,1.2l60.8,0.2" class="st0"></path>
		<path d="M411.5,769.6l69.8-0.2" class="st21"></path>
		<path d="M481.3,769.4c3.5-2,6.4-1.6,8.6,1.1" class="st14"></path>
		<path d="M489.9,770.5c2.1,6.1,4.8,11.6,8.2,16.7c2.3,3.6,5.2,3.7,9,3.4" class="st22"></path>
		<path d="M507.1,790.6c0.2,1.7-0.2,2.6-1.2,2.5" class="st23"></path>
		<path d="M505.9,793.2c-0.7,0.2-1.5,0.6-2.3,1.2c-0.6,0.5-1.2,0.5-1.9,0
			c-3.6-2.6-6.5-3.9-8.8-3.9c-54.7-0.1-109.5-0.1-164.2-0.1c-4.1,0-6.7,1.2-7.9,3.5c-0.9,1.8-0.4,2.8,1.7,2.8l181.3,0" class="st0"></path>
		<path d="M503.8,796.7c74.1,0.3,148.1,0.6,222.1,0.7c25.3,0.1,51.1-1.7,76.3-0.4
			c9.5,0.5,22.4-0.2,28.3-0.2c48.9,0,97.9-0.1,146.8-0.2c0.5,0,0.8-0.4,0.8-0.9c0-0.3-0.1-0.5-0.4-0.7l-2.5-1.6
			c-0.5-0.3-0.6-0.9-0.3-1.4c0.2-0.3,0.5-0.4,0.8-0.5l9.1-0.8" class="st23"></path>
		<path d="M984.9,790.8c2.4,0.7,4.2,0.9,5.2,0.5c1.8-0.7,1.8-1.3,0-1.8
			c-12-3.2-23.9-4.2-36-2.9" class="st10"></path>
		<path d="M954.1,786.7c-2.5-0.3-2.4-1.2,0.1-2.7c8.7-5.2,17.9-10.5,27.4-15.9
			c4.8-2.7,6-6.6,3.6-11.6l-0.5-1c-2.3-4.9-5.7-5.8-10.1-2.7l-25.1,17.6c-0.6,0.5-0.8,0.3-0.5-0.4c0.4-0.9,0.9-1.7,1.7-2.4
			c9.3-8.3,18.3-17,27.2-25.8c9-9,15.6-18.7,1.4-27.3c-6.9-4.2-12.1,1.6-16.1,6.2c-10,11.4-19.8,23-29.5,34.7
			c-0.2,0.3-0.5,0.3-0.8,0.1l-0.4-0.3c-0.2-0.1-0.2-0.3-0.1-0.5l11.2-15.8" class="st12"></path>
		<path d="M943.6,739.1c6.6-8.6,13.3-17.3,20.1-25.9c5.3-6.8,6.5-13.8-2.9-17.4
			c-0.6-0.2-1.3-0.3-1.9-0.1c-12.1,3.7-21.3,40.3-27.6,41" class="st20"></path>
		<path d="M931.3,736.6l5.2-10.5" class="st12"></path>
		<path d="M936.4,726.1c4.8-11.6,9.9-23.1,15.4-34.7c3.3-7,5.8-13.7-1.4-18.6
			c-5.7-3.9-11.2-2.6-13.1,4.5c-4.6,17.4-7.9,32.3-10.1,44.7" class="st20"></path>
		<path d="M927.3,722c-0.3,4.9-1.1,9.4-2.4,13.4c-0.6,1.8-0.9,1.7-1.1-0.1
			c-0.3-3.6,0-7.7,0.9-12.5" class="st12"></path>
		<path d="M924.7,722.8l8-55.9c0.9-6.3-1.8-9.8-8.1-10.7l-1.1-0.1
			c-6.3-0.8-9.5,2-9.7,8.3l-1.1,57.6" class="st20"></path>
		<path d="M912.8,722.1l-0.6,17.6c0,0.3-0.2,0.5-0.5,0.5l-0.8,0
			c-0.3,0-0.5-0.2-0.6-0.5l-1.4-23.2" class="st12"></path>
		<path d="M908.9,716.6l-3-44.9c-0.1-0.7-0.4-1.3-0.9-1.8
			c-2.3-1.9-5.1-2.9-8.5-2.9" class="st19"></path>
		<path d="M896.5,667l0-209.9" class="st13"></path>
		<path d="M896.5,457.1l17,35.5c1.1,2.4,3,3.1,5.4,2.3c5.4-1.9,6.8-5.3,4.1-10.2
			c-4.4-8-8.8-16.2-13.2-24.6c-0.2-0.4-0.1-0.8,0.3-1c0.3-0.2,0.6-0.1,0.8,0.1l27.8,24.2c4.6,4,8.6,3.5,12.2-1.4l1.6-2.3
			c3.3-4.6,2.6-8.5-2-11.8l-34.3-24.5c-0.2-0.2-0.2-0.5-0.1-0.7c0.1-0.2,0.3-0.2,0.5-0.1l25,9.7c2.6,1,5.6-0.1,6.9-2.6l1.1-2.1
			c2.4-4.4,1.1-7.4-3.6-9l-32.1-10.3c-0.2,0-0.2-0.2-0.2-0.4c0-0.1,0.1-0.2,0.2-0.2l45.4-9.4c2.1-0.4,3.7-2.2,3.9-4.3
			c0.5-4.7-2.1-5.6-6.1-5c-14.8,2.4-29,6.4-43.5,8.6c-0.2,0.1-0.5-0.1-0.6-0.3c-0.1-0.2,0.1-0.5,0.3-0.6l0,0L965,389
			c1.6-0.8,2-2.1,1.4-3.8l-0.4-1c-0.3-0.7-1.1-1.1-1.8-0.8c0,0,0,0-0.1,0l-49.6,22.7c-1.5,0.7-1.7,0.5-0.5-0.7l45.2-45.5
			c1.4-1.4,1.7-3,1.1-4.8l-0.4-1.2c-0.3-1-1.3-1.5-2.3-1.1c-0.2,0.1-0.5,0.2-0.7,0.4l-48.8,45c-0.1,0.1-0.4,0.1-0.5-0.1
			c-0.1-0.1-0.1-0.2,0-0.4l22.8-38.6" class="st12"></path>
		<path d="M930.4,359.1l20.9-35.4c2.7-4.5,1.8-8.3-2.5-11.3l-2.9-2
			c-4.3-2.9-7.7-2.1-10.2,2.5l-21.6,39.8" class="st19"></path>
		<path d="M913.9,352.8c-0.9,2.9-2.3,5.1-4,6.7c-0.6,0.5-0.8,0.4-0.7-0.4l7.7-45.7
			c0.8-4.9-1.1-8.3-5.8-9.9l-1.5-0.5c-5-1.8-7.7,0-8.1,5.3l-5.6,69.8c0,0.1-0.1,0.2-0.1,0.2c-0.1,0-0.2-0.1-0.2-0.1l0,0l-4-31.5" class="st12"></path>
		<path d="M891.7,346.6c-1.6-18.2-2.9-36.5-4.1-54.8c-0.9-14.7-23.6-11.9-22.3-1
			c2.5,20.9,5.2,41.8,7.9,62.7" class="st20"></path>
		<path d="M873.2,353.4c1,7.3,1.9,12.3,2.6,15.1c3.6,14.4,2.6,14.7-3,0.9
			l-22.5-55.6c-0.5-1.3-1.9-1.9-3.2-1.4c-0.2,0.1-0.5,0.2-0.7,0.4l-0.9,0.8c-1.4,1.2-1.8,2.7-1.2,4.4l23.8,63.8
			c0.1,0.3,0,0.5-0.3,0.7c-0.2,0.1-0.4,0-0.6-0.2l-46.1-55.6c-3.5-4.2-7.3-4.5-11.5-1l-1.9,1.6c-4,3.4-4.3,7.2-0.9,11.2l51.1,60.7
			c0.3,0.4,0.3,1-0.1,1.3c-0.3,0.3-0.8,0.3-1.1,0.1L814.9,374c-1.3-0.8-3-0.5-3.9,0.8l-6.9,9.5" class="st12"></path>
		<path d="M804.1,384.2c-4-4.3-9.5-7.8-16.8-10.8c-47.7-19.4-97.6-7.3-133.9,28
			c-0.8,0.7-2,0.7-2.8-0.1c-0.3-0.3-0.5-0.8-0.5-1.3c-0.6-22.6,0.5-44.3-1.6-67c-2.6-27.2-12.9-50.6-30.9-70.1
			c-8.5-9.2-18.9-15.4-30.2-20.7c-35.8-16.9-75.2-7-103.6,19.7c-0.9,0.9-1.7,0.7-2.2-0.4c-17.3-37.9-45.3-61.8-84-71.7
			c-34.5-8.8-69.9-3.9-100.3,14.4c-40.9,24.6-59.5,68.8-54.8,116.5c0.6,6.2,2,11.8,4.1,16.7c0.2,0.6,0.2,1.1-0.2,1.5l-0.6,0.6" class="st4"></path>
		<path d="M804.1,384.2l56.7,33.5c1.5,0.9,1.4,1.3-0.4,1.1
			c-14.9-1.5-31.9-6.7-51.8-11.7c-1.6-0.4-3.3,0.6-3.8,2.2c0,0.1-0.1,0.2-0.1,0.4l-0.1,1.1c-0.4,3.2,1,5.2,4.1,6l48.4,12.3
			c0.6,0.2,0.9,0.7,0.8,1.3c-0.1,0.4-0.4,0.7-0.7,0.8L819,442.6c-4,1.2-5.3,3.7-3.9,7.7l0.8,2.3c1.4,3.9,4,5.2,7.9,4
			c11.4-3.4,22.3-7.8,32.8-13.2c0.4-0.2,1-0.1,1.2,0.4c0.2,0.3,0.1,0.8-0.1,1c-9.5,10.7-19,20.9-28.5,30.6c-1.5,1.5-1.5,3.6,0,6.3" class="st24"></path>
		<path d="M829.2,481.7c0.2,0.3,0.1,0.7-0.1,0.9c-0.4,0.5-1,0.7-1.6,0.4
			c-6.7-2.3-15.4-4.8-26-7.3c-39.4-9.3-94.7-22.8-165.9-40.5c-4-1-12.4,0.3-12.3-6.8c0.3-16.5,0.1-32.8-0.5-49" class="st25"></path>
		<path d="M622.7,379.4l0.1-30.1c0-2.1-1.7-3.8-3.8-3.8c-0.1,0-0.1,0-0.2,0
			l-24.4,0.8c-1.6,0.1-2.8,1.4-2.8,2.9l0.1,29.2c0,0.4,0.2,0.7,0.6,0.8c0.4,0.1,0.6,0.2,0.7,0.4" class="st4"></path>
		<path d="M593.1,379.7l-0.8,0.4c-0.6,0.3-0.9,0.7-0.9,1.3l0,40.3
			c0,1.9-0.9,2.7-2.8,2.2l-342.8-84.3" class="st25"></path>
		<path d="M913.9,352.8l16.4,6.3" class="st26"></path>
		<path d="M896.5,457.1c-4.3-2.6-9.2-2.6-14.8,0" class="st27"></path>
		<path d="M856.5,488.6c-2.6-2.6-3.9-4.3-1.9-8.1c3.9-7.6,7.5-14.6,10.6-21
			c1.6-3.3,1.1-3.7-1.6-1.2l-27.9,26" class="st24"></path>
		<path d="M593.1,379.7l29.6-0.3" class="st0"></path>
		<path d="M829.2,481.7c1.2,1.2,3.4,2.1,6.5,2.6" class="st28"></path>
		<path d="M835.8,484.4l20.8,4.2" class="st25"></path>
		<path d="M856.5,488.6c2.3,1.7,4.6,2,7.2,1" class="st28"></path>
		<path d="M862,528.1c-6.2-4.1-11.8-4.5-18.5-6.2c-29.7-7.5-59.4-14.8-89.2-21.9
			c-30.6-7.3-64.3-16.5-96.8-23.7c-9.7-2.2-20.3-4.8-31.8-7.9c-21.8-5.9-51.5-12.4-65.8-15.9c-105.7-25.6-188.5-45.8-248.3-60.6
			c-77.8-19.2-146.4-35.9-206-50c-3.4-0.8-6.5-0.4-10.1-0.3" class="st29"></path>
		<path d="M891.7,346.6l-1.9,2.3c-0.4,0.5-1,0.9-1.7,1c-1.7,0.4-3,1.2-4.1,2.3
			c-0.5,0.5-1,0.8-1.7,0.8l-9.1,0.4" class="st30"></path>
		<path d="M896.5,667c-2,0.4-3.5,1.2-4.6,2.4" class="st31"></path>
		<path d="M891.9,669.4c-2.6-0.3-4.7,0.4-6.3,2c-0.5,0.5-0.8,1.1-0.9,1.9
			c-0.8,11.9,0.5,23.5,4.2,34.9" class="st32"></path>
		<path d="M888.9,708.1l4,20.4" class="st27"></path>
		<path d="M892.9,728.5c-0.3,0.3-0.7,0.4-1.4,0.3" class="st33"></path>
		<path d="M891.5,728.8l-8.8-28.5" class="st27"></path>
		<path d="M882.8,700.3l-1.1-18.8" class="st34"></path>
		<path d="M857.2,529.5L99.1,345c-0.6-0.2-0.9,0.1-1,0.7c-0.1,0.3,0,0.6,0.1,0.8" class="st35"></path>
		<path d="M891.5,728.8l2.5,8.3c0.1,0.3,0.4,0.4,0.7,0.4c0.3-0.1,0.4-0.4,0.4-0.7
			l-2.2-8.3" class="st36"></path>
		<path d="M931.3,736.6c-0.5,0.4-0.8,0.9-1,1.5c-0.1,0.4,0,0.7,0.2,1l2.6,2.9
			c0.4,0.4,0.8,0.5,1.3,0.4c1.1-0.3,1.7-1.1,1.9-2.3c0.1-0.7,0.5-1.4,1.1-1.9c2-1.6,4.1-1.3,6.2,0.9" class="st30"></path>
		<path d="M954.1,786.7l-78-0.5" class="st37"></path>
		<path d="M882.8,700.3c-1.5,0.6-2.9-0.6-4.4-3.5c-0.4-0.7-1-1.2-1.8-1.3
			c-5-1.1-8.8,0.4-11.5,4.5c-0.5,0.7-0.5,1.5-0.2,2.3l16.7,39.8c0.1,0.1,0,0.3-0.1,0.4l-0.5,0.3c0,0,0,0,0,0
			c-5.6-10.5-11.7-20.8-18.2-30.8c-3.8-5.9-8.4-6.5-13.6-1.9l-0.9,0.8c-4.9,4.3-5.4,9-1.4,14.2l32.1,41.4c0.1,0.2,0.1,0.3,0.1,0.4
			l-0.4,0.5c-0.2,0.2-0.6,0.3-0.8,0c0,0,0,0,0,0l-27.3-24.7c-3.7-3.3-6.8-2.9-9.3,1.4l-0.9,1.6c-2.5,4.4-1.7,7.9,2.5,10.7l42.6,28.5
			c1,0.7,0.9,1-0.3,1l-8.9,0.3" class="st24"></path>
		<path d="M876.1,786.2l-59.3,0c-0.6,0-0.9-0.3-0.7-0.9c2.3-8,5.9-15.2,10.8-21.9
			c0.8-1.1,0.5-2.6-0.5-3.3c-0.8-0.6-1.9-0.6-2.7-0.1c-3,2-4.3,7.2-6.8,10.1c-1.2,1.4-1.5,1.2-1.1-0.6l4.8-21.2
			c0.3-1.5-0.3-2.4-1.8-2.6l-0.5-0.1c-1.5-0.2-2.4,0.5-2.6,2c-0.6,4.1-1.6,8.1-3,12.1c-0.6,1.6-0.9,1.5-1-0.1
			c-0.5-5.6-0.4-11.1,0.2-16.4c0.4-3.6-1.4-6.2-5.1-5.6" class="st38"></path>
		<path d="M806.6,737.7c-0.2-1.7-1.7-1.4-4.5,1.1c-1.1,0.9-2.5,1.2-4.3,0.8
			c-1.8-0.4-3.2-0.6-4.1-0.5c-6.7,0.4-13.4,0.8-20.3,1.1" class="st4"></path>
		<path d="M773.3,740.3c-0.7-2.9,0.3-5.6,2.7-8.2c0.5-0.5,0.7-1.1,0.5-1.9
			c-0.2-1.1-1-1.8-2.3-2" class="st39"></path>
		<path d="M822.4,612.3c3.5,0,5.1-1.3,4.9-3.7c-0.2-2-1.9-3.6-4-3.6l-177.7,0.1
			c-1.1,0-2.2-0.6-3-1.8c-0.1-0.1,0.1-0.5,0.5-1.4" class="st25"></path>
		<path d="M643.1,602l1.1,0.6c0.6,0.3,1.3,0.5,2,0.5c52.1,0.4,104.2,0.4,156.3,0
			c1.5,0,2.9-0.1,4.2-0.2c6.4-0.8,7.7-1.6,3.7-2.4" class="st24"></path>
		<path d="M813.3,596.3l0.3-8" class="st40"></path>
		<path d="M813.4,583.6c0.8-1.8,0.6-4.7-0.6-8.9" class="st40"></path>
		<path d="M812.8,570.4l1.8-1" class="st41"></path>
		<path d="M814.6,569.4l5.3,0.4c1.6,0.1,3.1-1,3.4-2.5l0.7-3.1
			c0.4-2-0.4-2.9-2.4-2.9l-7.1,0.1" class="st42"></path>
		<path d="M814.5,561.4c-0.7,0.2-1,0.1-1.1-0.5" class="st41"></path>
		<path d="M813.9,557.1c-0.2-0.4,0.2-0.6,1-0.6" class="st41"></path>
		<path d="M814.9,556.6l6.9,0.1c0.8,0,1.3-0.3,1.5-1.1c0.7-2.4,0.8-5.2,0.2-8.6" class="st43"></path>
		<path d="M908.9,716.6c-10-5.3-16.1-12.2-18.3-20.7" class="st26"></path>
		<path d="M890.6,695.9c1.6-9.4,2-18.3,1.3-26.6" class="st44"></path>
		<path d="M890.6,695.9l-1.7,12.2" class="st45"></path>
		<path d="M812,539c2.3-4.8,2.5-9.2-3.3-10.5c-39.6-9.1-93.8-22.2-162.6-39.5
			c-2.9-0.7-4.4-0.3-4.3,1.4" class="st46"></path>
		<path d="M641.9,490.3c-2.8-1.7-6.4-3.1-10.8-4.2c-34.1-8.5-68.3-16.8-102.6-25.1" class="st47"></path>
		<path d="M528.4,461.1c-7.2-3-14.9-4.9-22.8-5.5" class="st48"></path>
		<path d="M505.6,455.6l-155.4-38.1" class="st49"></path>
		<path d="M350.2,417.5c-1.2-1.9-3-3.1-5.2-3.5c-0.7-0.1-1,0.2-1,0.8l0.2,33.8" class="st2"></path>
		<path d="M344.3,448.7l-8.7-2.1" class="st50"></path>
		<path d="M335.6,446.5c-0.6-4.2-3.6-7.6-9-10c-3.3-1.5-6-2.8-8.1-3.9
			c-3.7-2-6.4-3.2-8.1-3.8c-4.3-1.4-8.6-2.6-12.9-3.7c-4.7-1.2-9-2.4-12.8-3.9c-7.9-3-14.8-5.2-20.6-6.6
			c-10.9-2.7-20.3-5.4-28.2-8.2c-6.5-2.3-12.8-3.3-19.4-4.6c-2.5-0.5-6.1-1.7-10.8-3.6c-3.8-1.5-7.6-2.4-11.3-2.7" class="st51"></path>
		<path d="M924.7,722.8c-2.9-1.1-6.9-1.4-11.9-0.7" class="st30"></path>
		<path d="M936.4,726.1l-9.1-4.1" class="st30"></path>
		<path d="M984.9,790.8l-183,0" class="st52"></path>
		<path d="M801.9,790.7c1.8-0.8,2.9-1.5,3.2-2.4c0.2-0.6,0-0.9-0.6-0.9
			c-0.8,0-1.5-0.4-2-1.1" class="st53"></path>
		<path d="M773.3,740.3l-269.9-0.2c-1.4,0-2.5,1.1-2.5,2.5c0,0.1,0,0.2,0,0.3
			c0.8,7.6,0.4,15-1.2,22.2" class="st14"></path>
		<path d="M499.8,765.1c-1.9,2.5-2.3,7.6-1.4,15.4" class="st54"></path>
		<path d="M498.4,780.5c-3-5.3-5.8-8.6-8.5-10" class="st55"></path>
		<path d="M481.3,769.4l0-58.5" class="st56"></path>
		<path d="M643,600.6l0.1,1.5" class="st28"></path>
		<path d="M298,601.5c15.7,2.9,31.7,3.1,48,0.6" class="st57"></path>
		<path d="M433.5,605.3c24.2,0,48.3,0,72.4,0c0.5,0,0.9-0.1,1.2-0.3
			c0.4-0.3,0.7-0.6,0.9-1" class="st58"></path>
		<path d="M813.4,548.3c-1.1,4.1-0.6,6.8,1.5,8.3" class="st59"></path>
		<path d="M814.5,561.4c-2,2.4-2,5.1,0.1,8" class="st60"></path>
		<path d="M806.6,737.7l-0.5,18.7c0.1,0.7-0.5,1.4-1.3,1.4
			c-0.7,0.1-1.4-0.5-1.4-1.3l-1.9-11.7c-0.2-1.4-1.6-2.4-3-2.2l-1.1,0.2c-1.6,0.3-2.7,1.8-2.5,3.4c0,0.1,0.1,0.3,0.1,0.4
			c2.2,7.2,4.1,14.4,5.7,21.8c0.7,3.1,0.1,3.3-1.7,0.7l-5.2-7.8c-0.8-1.2-2.3-1.7-3.6-1.2l-0.8,0.3c-0.6,0.2-1,0.9-0.8,1.6
			c0,0.1,0.1,0.1,0.1,0.2l13.7,24" class="st10"></path>
		<path d="M802.4,786.3c-91.6-0.1-183.3,0-275.1,0.1c-7.9,0-14.2,0.4-18.8,1.2
			c-0.7,0.1-0.9-0.1-0.4-0.7l6.4-8.3" class="st22"></path>
		<path d="M514.4,778.6c3.1,1.5,6.7,2.2,10.8,2.2c54.1-0.8,112.5,0.1,170.4-0.4
			c31.5-0.3,63.2-0.3,95-0.1c3.3,0,4.2-1.4,2.8-4.4l-0.7-1.5c-1.5-3.2-4-4.8-7.5-4.8c-79.1,0.9-166.6,0.9-262.7,0.1
			c-2.5,0-4.5,0.7-6,2.2" class="st1"></path>
		<path d="M516.6,772c-2.4,0.9-4.6,3.3-6.5,7.2" class="st22"></path>
		<path d="M510.1,779.2c-1.9-1.3-1.7-4.1,0.6-8.4c0.6-1.2,0.2-2.6-1-3.3
			c-1.1-0.6-2.5-0.2-3.1,0.8c-0.5,0.8-0.8,1.6-0.9,2.5c-0.1,0.7-0.7,1.1-1.3,1.1c-0.4,0-0.7-0.3-0.9-0.6l-3.6-6.3" class="st10"></path>
		<path d="M344.3,448.7l1.5,30.1" class="st4"></path>
		<path d="M345.7,478.7l-148.4,0.3" class="st43"></path>
		<path d="M335.6,446.5c-42.3-9.9-84.1-20.1-125.4-30.5c-6.7-1.7-9-5.4-11.3-11.4" class="st42"></path>
		<path d="M350.2,417.5l-0.1,61" class="st6"></path>
		<path d="M350.1,478.6c0.3,0.9-1.1,1-4.4,0.2" class="st1"></path>
		<path d="M641.9,490.3c0,14.1,0,28.2,0.1,42.3c0,2.8,0.3,5,1,6.8" class="st61"></path>
		<path d="M505.6,455.6l0.1,62.5" class="st62"></path>
		<path d="M505.7,518.1c-2.2,0.7-3.6,1.3-5.9,0.5c-23.7-8.2-47.5-15.9-71.5-23.2
			c-1-0.3-2.6-1.3-4.8-2.9" class="st63"></path>
		<path d="M423.5,492.5l0.3-9.5c0-1.7-1.3-3.1-3-3.1c0,0,0,0-0.1,0l-69.7-0.5" class="st64"></path>
		<path d="M351,479.3l-1-0.8" class="st59"></path>
		<path d="M528.4,461.1l0,78.5" class="st65"></path>
		<path d="M506.3,539.2l-0.6-21.2" class="st66"></path>
		<path d="M801.9,790.7l-294.8-0.1" class="st67"></path>
		<path d="M531.1,695.2c-7.7,0.2-14.6,2.1-20.8,5.8c-0.6,0.4-1,0.9-1.3,1.6
			l-1.9,5.3" class="st68"></path>
		<path d="M507.2,707.8l-4.2,0c-0.6,0-1.2-0.5-1.2-1.2c0-0.1,0-0.1,0-0.2l3.3-17.2
			c0.2-1.1-0.2-1.9-1.4-2.2l-0.5-0.2c-0.8-0.2-1.6,0.2-1.8,1c0,0.1,0,0.1,0,0.2l-1,5.9c-0.1,0.5-0.5,0.8-1,0.7
			c-0.2,0-0.3-0.1-0.5-0.2l-1.9-1.8c-0.6-0.5-1.2-0.6-1.8-0.1c-0.5,0.4-0.9,0.9-1.1,1.5" class="st69"></path>
		<path d="M494,694c-4.1,1-8.3,0.6-12.5-1.5" class="st68"></path>
		<path d="M481.5,692.5c-0.5-15.8-0.8-31.7-1-47.8c0-0.8,0.4-1.9,1.1-3.6" class="st70"></path>
		<path d="M481.5,692.5l-0.2,18.3" class="st71"></path>
		<path d="M481.3,710.8c-0.4,0.6-0.6,1.4-0.6,2.4c0,0.6-0.3,0.9-0.8,1l-17.9,2.2" class="st72"></path>
		<path d="M462,716.4l0.1-35.1c0-0.6-0.3-0.9-0.9-0.9l-24.1,0.1c-0.5,0-1,0.4-1,1
			l0,0v19.8" class="st73"></path>
		<path d="M436.1,701.4c-7-1.7-13.9-2.2-20.6-1.5c-0.3,0-0.4,0.2-0.4,0.4
			c0,0.2-0.1,0.4-0.4,0.5c-0.3,0.1-0.6,0.1-0.9,0c-0.6-0.3-1-0.8-1-1.3" class="st72"></path>
		<path d="M412.8,699.5l-0.5-6.7" class="st74"></path>
		<path d="M510.1,779.2l-4.7,8.4c-0.5,0.8-1.1,0.9-1.8,0.4
			c-2.8-2.2-4.6-4.7-5.1-7.4" class="st53"></path>
		<path d="M507.2,707.8c0.1,5.7-4.8,9.5-9.7,7.4c-0.7-0.3-1-1-0.8-1.7
			c2.1-6.4,1.2-12.9-2.7-19.4" class="st75"></path>
		<path d="M256.6,601.6c-16.3,3.2-33.4,3.6-51.4,1.2" class="st76"></path>
		<path d="M578.8,601.4c-13.5,2.4-27.3,2.8-41.4,1.3c-0.5-0.1-1-0.2-1.4-0.4
			c-1-0.5-1.9-0.3-2.6,0.8c-0.4,0.6-1,0.9-1.7,0.9l-23.7-0.1" class="st76"></path>
		<path d="M508,603.9c-1.1,0.2-1.9-0.9-2.4-3.1" class="st54"></path>
		<path d="M514.4,778.6c2.5-3,3.2-5.1,2.2-6.5" class="st77"></path>
		<path d="M351,479.3l-0.9,1.3c-0.4,0.6-0.6,1.2-0.6,1.9l0,29.2" class="st78"></path>
		<path d="M345.4,513.4l-283.9,0" class="st79"></path>
		<path d="M423.5,492.5c-0.1,0.6-0.3,1.2-0.8,1.7c-0.5,0.5-0.7,1.2-0.6,1.9
			c1.2,14.4,1.1,28.8-0.4,43.1" class="st80"></path>
		<path d="M505.9,793.2c-0.1,0.8-0.8,2-2.1,3.5" class="st81"></path>
		<path d="M462,716.4l-0.5,30c0,0.5-0.4,0.9-1,0.9c0,0,0,0,0,0l-23-0.4
			c-0.7,0-1.2-0.6-1.3-1.3l-0.3-44.3" class="st21"></path>
		<path d="M412.8,699.5c-1.2,24.2-1.2,40.3-0.1,48.1c1.2,8.8,0.8,16.2-1.3,22" class="st82"></path>
		<path d="M483.4,632.8c-1.5-0.6-1.9,1.8-1.4,7.2" class="st83"></path>
		<path d="M482,640.1c-0.5-0.8-0.6-0.5-0.4,1.1" class="st84"></path>
		<path d="M481.7,641.1c-1,1.2-1.9,1.8-2.8,1.8c-20.7-0.2-41.3-0.3-62-0.3
			c-1.1,0-2.5,0.4-4.2,1.2" class="st85"></path>
		<path d="M412.6,643.8c-1.2-1.4-2.3-2.1-3-2.1c-14.7-0.3-29.4-0.1-44,0.6
			c-1.5,0.1-4.1,0-7.9-0.4c-2.7-0.2-5.3-0.1-8,0.3" class="st86"></path>
		<path d="M344.1,642.4l-168,0" class="st84"></path>
		<path d="M771.4,641.5c-93.2-0.6-187-0.6-281.6,0c-3.2,0-5.8-0.5-7.8-1.5" class="st87"></path>
		<path d="M412.6,643.8l-0.3,49" class="st88"></path>
		<path d="M412.3,692.8c-1.7-0.8-3-0.6-3.8,0.5c-0.2,0.3-0.4,0.6-0.7,0.8
			c-3.7,3.3-6.5,4.5-8.4,3.4" class="st89"></path>
		<path d="M399.5,697.5l0.1-31.4c0-0.7-0.3-1-1-1l-19.2,0c-1.5,0-2.6,1.2-2.6,2.6
			c0,0,0,0,0,0l0,31.5" class="st7"></path>
		<path d="M376.7,699.1l-10.9,0.5c-0.7,0-1.4,0.2-2,0.4c-2.2,0.7-4.3,0.6-6.3-0.3
			c-0.6-0.3-1.2-0.3-1.8,0c-2.4,0.9-4.4,0.7-6-0.7" class="st89"></path>
		<path d="M484.8,601.3c-15.7,3.3-32.2,3.8-49.4,1.3" class="st54"></path>
		<path d="M344.2,520.1l-88-0.5" class="st90"></path>
		<path d="M256.1,519.5H74.8" class="st69"></path>
		<path d="M399.5,697.5c0.3,0.6,0.3,1.2,0,1.8c-0.2,0.5-0.8,0.8-1.4,0.8l-21.4-1" class="st0"></path>
		<path d="M343.9,694.8l-0.5,4.4c0,0.3-0.3,0.5-0.6,0.5c-0.2,0-0.4-0.1-0.4-0.3
			l-2.4-6c-0.2-0.6-0.7-0.9-1.3-0.9l-90.5-0.4c-0.5,0-0.9,0.2-1.2,0.5l-3.3,3.1" class="st63"></path>
		<path d="M243.7,695.7l-0.4-27.1c0-0.7,0.3-1.1,1-1.1l68.8-0.2
			c1.3,0,2-0.6,2.3-1.9l0.2-0.7c0.1-0.6-0.3-1.1-0.8-1.3c-0.1,0-0.1,0-0.2,0L212,663.8c-1,0-1.5,0.5-1.5,1.5l-0.1,34.2" class="st6"></path>
		<path d="M210.5,699.5c-0.8,0.2-2.2,0-4-0.6c-1.4-0.5-2.7-0.7-3.9-0.6
			c-8.5,0.3-17.2,0.6-26,0.8c-0.8,0-1.2-0.4-1.3-1.1l-0.7-12.5" class="st63"></path>
		<path d="M256.1,519.5c-1.8,4-1.7,8.2,0.5,12.5" class="st91"></path>
		<path d="M337.1,769.2c2-2,2.3-3.7,1-5.1c-0.8-0.9-2.2-1-3.1-0.2
			c-0.2,0.1-0.3,0.3-0.4,0.5l-6,10c-0.3,0.4-0.8,0.6-1.3,0.3c-0.3-0.2-0.5-0.6-0.4-1l6.5-23.7c0.1-0.5-0.2-1-0.7-1.1
			c0,0-0.1,0-0.1,0l-0.9-0.1c-1.4-0.2-2.3,0.4-2.8,1.8l-4.9,15.8c-0.1,0.2-0.2,0.3-0.5,0.3l-0.5-0.1c-0.5-0.1-0.8-0.5-0.7-1
			l2.3-22.8c0.2-1.6-0.8-3.1-2.3-3.6l-0.5-0.2c-1.6-0.6-2.5-0.1-2.6,1.7l-0.8,18.7c-0.4,10.3-1.5,10.4-3.2,0.2
			c-0.8-4.6-1.4-9.3-1.9-14c-0.2-1.8-1.8-3.1-3.5-3l-0.9,0.1c-1.2,0.1-2.1,1.1-2,2.3c0,0.1,0,0.2,0,0.3l5.9,29.6
			c0.1,0.4-0.2,0.8-0.6,0.9c0,0,0,0,0,0l-0.6,0.1c-0.2,0-0.4,0-0.5-0.2l-6.9-13.1c-0.9-1.7-2-1.9-3.5-0.7l-0.5,0.4
			c-0.8,0.6-1,1.7-0.5,2.6l9.9,18.7" class="st66"></path>
		<path d="M309.8,783.6c-4.9,1.1-9.7,1-14.3-0.1c-0.7-0.2-1.1-0.8-1.1-1.4
			c-0.1-6.7-1.3-13.2-3.6-19.5" class="st92"></path>
		<path d="M290.8,762.7l-0.6-26.2c0-0.6-0.5-1.1-1.1-1.1c0,0,0,0,0,0
			c-10.5,0.4-20.3,0.3-29.3-0.1c-1.5-0.1-2.5,0.1-3.2,0.6c-1.2,0.8-1.4,1.9-0.8,3.5c0.2,0.6,0.3,1.3,0,1.9
			c-1.3,4.1-1.8,8.4-1.3,12.8c0.8,7,1.5,13.9,2.2,20.8" class="st93"></path>
		<path d="M256.7,775c-1.8-1-2-1.9-0.8-2.8" class="st92"></path>
		<path d="M255.9,772.2c-9.8,2.5-18.4,6.5-25.7,11.8c-0.2,0.1-0.3,0.2-0.5,0.2
			c-0.2,0-0.4-0.1-0.6-0.4c-0.2-0.3-0.2-0.6,0.1-0.8l15.8-15.6c0.4-0.4,0.4-1.1,0-1.5c-0.1-0.1-0.2-0.2-0.3-0.2l-0.8-0.3
			c-1.1-0.5-2.4-0.3-3.3,0.5l-11.4,10.7c-0.4,0.4-1.1,0.5-1.5,0.1l-0.6-0.4c-0.3-0.2-0.3-0.4-0.1-0.7l9.1-13
			c0.8-1.2,0.6-2.1-0.6-2.8l-0.9-0.5c-0.9-0.6-2.1-0.3-2.8,0.5l-9.4,12.3c-0.4,0.5-0.8,0.5-1.2,0c-0.9-1.1-1.1-2.3-0.5-3.5
			c1.6-3,3-6.4,4.1-10.1c0.2-0.7,0-1.5-0.6-2l-0.8-0.6c-1-0.7-2.4-0.5-3.1,0.5c-0.2,0.2-0.3,0.4-0.3,0.7l-4,13.5
			c-0.1,0.3-0.4,0.5-0.7,0.4c-0.1,0-0.2-0.1-0.3-0.2l-0.7-0.7c-0.5-0.6-0.8-1.4-0.8-2.1l0.9-14.9c0.1-1.2-0.9-2.3-2.1-2.4
			c-0.1,0-0.2,0-0.3,0l-1,0.1c-1,0.1-1.7,0.9-1.8,1.9l-0.7,16.6c0,0.6-0.4,1.1-1,1.1c-0.5,0-0.9-0.3-1-0.8l-3.9-14.7
			c-0.2-0.9-1.2-1.5-2.1-1.3c-0.2,0-0.3,0.1-0.5,0.2l-0.5,0.3c-1.3,0.8-1.7,1.9-1.3,3.3l4,15.4c0.2,0.6-0.1,1.2-0.7,1.4
			c-0.5,0.2-1-0.1-1.3-0.5l-7.5-13c-0.6-1.1-1.9-1.7-3.3-1.5l-0.7,0.1c-0.6,0.1-1,0.7-0.9,1.2c0,0.1,0.1,0.2,0.1,0.3l7.1,13.9
			c0.2,0.4,0,0.8-0.3,1c-0.3,0.1-0.6,0.1-0.9-0.1l-13.8-11.9c-0.7-0.7-1.9-0.7-2.5,0.1c-0.7,0.7-0.7,1.8,0.1,2.5l0,0l14.2,15.1
			c0.2,0.2,0.2,0.6,0,0.8c-0.2,0.2-0.4,0.2-0.6,0.1l-16.5-8.9" class="st94"></path>
		<path d="M243.7,695.7l-1,29c0,0.8-0.7,1.4-1.4,1.4l-25.9-0.1
			c-2.9,0-4.4-1.5-4.5-4.4l-0.3-21.9" class="st9"></path>
		<path d="M290.8,762.7l0.9,19.9c0,1-0.7,1.8-1.6,1.8c0,0-0.1,0-0.1,0l-33.6,0
			c-4.9,0-5.6-1.4-2.2-4.1c0.8-0.7,1.7-2.4,2.6-5.3" class="st81"></path>
		<path d="M313,788.4l-75-0.2c-0.5,0-0.9,0.1-1.3,0.3c-1.5,0.7-3,0.3-4.4-1.2" class="st95"></path>
		<path d="M334.6,772.3c-2.6,0.9-4.9,3.6-6.9,8.3" class="st76"></path>
		<path d="M319.4,791.8l-6.4-3.4" class="st96"></path>
		<path d="M313,788.4l-3.2-4.8" class="st52"></path>
		<path d="M255.9,772.2c-7.2,7.3-15,12.4-23.6,15.2" class="st97"></path>
		<path d="M232.3,787.3l-4,0.2" class="st98"></path>
		<path d="M128.7,786c-11.9-1.1-23.9-1.2-35.9-0.1" class="st99"></path>
		<path d="M70.1,737.9c4.3-2.4,8-5.7,11.2-10" class="st26"></path>
		<path d="M110.3,718.5l-2.6,7.2c-0.3,0.8-1.1,1.1-1.9,0.9c0,0,0,0,0,0
			c-2.8-1.2-5.4-1.2-7.9-0.1" class="st30"></path>
		<path d="M129.9,715.8c-4.5,1.9-9.3,2.1-14.4,0.7" class="st26"></path>
		<path d="M158.2,539.3c0-0.7-0.5-1.2-1.2-1.2c0,0,0,0,0,0l-78.9-0.1
			c-0.7,0-1.2,0.5-1.2,1.2l0,2.2c0,0.7,0.5,1.2,1.2,1.2l78.9,0.1c0.7,0,1.2-0.5,1.2-1.2l0,0L158.2,539.3" class="st6"></path>
		<path d="M201.5,539.6c0-0.8-0.7-1.5-1.5-1.5L161,538c-0.8,0-1.5,0.7-1.5,1.5
			l0,1.6c0,0.8,0.7,1.5,1.5,1.5l39.1,0.1c0.8,0,1.5-0.7,1.5-1.5v0L201.5,539.6" class="st6"></path>
		<path d="M296.1,540.2c0-0.8-0.7-1.5-1.5-1.5c0,0,0,0,0,0l-88.9-0.6
			c-0.8,0-1.5,0.7-1.5,1.5l0,1.2c0,0.8,0.7,1.5,1.5,1.5c0,0,0,0,0,0l88.9,0.6c0.8,0,1.5-0.7,1.5-1.5L296.1,540.2" class="st10"></path>
		<path d="M344.8,540.2c0-0.8-0.7-1.5-1.5-1.5c0,0,0,0,0,0l-43.8-0.1
			c-0.8,0-1.5,0.7-1.5,1.5l0,1c0,0.8,0.7,1.5,1.5,1.5c0,0,0,0,0,0l43.8,0.1c0.8,0,1.5-0.7,1.5-1.5c0,0,0,0,0,0L344.8,540.2" class="st15"></path>
		<path d="M158,547.7c0-0.6-0.5-1.2-1.2-1.2l-78.7-0.1c-0.6,0-1.2,0.5-1.2,1.2
			l0,8.3c0,0.6,0.5,1.2,1.2,1.2l78.7,0.1c0.6,0,1.2-0.5,1.2-1.2L158,547.7" class="st6"></path>
		<path d="M254.2,546.7l-49,0c-0.8,0-1.1,0.4-1.1,1.1l0,8.3c0,0.7,0.3,1,1,1
			l50.1,0" class="st10"></path>
		<path d="M255.2,557.1l38.8,0c1.4,0,2.1-0.7,2.1-2.1l0-6.8c0-1.3-0.6-1.9-1.9-1.9
			l-40,0.2" class="st15"></path>
		<path d="M255.2,557.1l-1-10.5" class="st100"></path>
		<path d="M345,548.1c0-0.8-0.6-1.4-1.4-1.4l-43.8-0.1c-0.8,0-1.4,0.6-1.4,1.4
			l0,7.7c0,0.8,0.6,1.4,1.4,1.4l43.8,0.1c0.8,0,1.4-0.6,1.4-1.4v0L345,548.1" class="st15"></path>
		<path d="M199.8,557c0.5,0,0.9-0.4,0.9-0.9l0.9-8.4c0.1-0.5-0.3-1-0.8-1.1
			c0,0-0.1,0-0.1,0l-40.2-0.1c-0.5,0-1,0.4-1,1c0,0,0,0.1,0,0.1l0.8,8.6c0,0.5,0.5,0.9,1,0.9L199.8,557" class="st6"></path>
		<path d="M429.8,549.2c0-1-0.8-1.8-1.8-1.8l-76.4-0.1c-1,0-1.8,0.8-1.8,1.8l0,0
			l0,6.1c0,1,0.8,1.8,1.8,1.8l76.4,0.1c1,0,1.8-0.8,1.8-1.8L429.8,549.2" class="st6"></path>
		<path d="M577,547.7l-43.4,0.5" class="st15"></path>
		<path d="M533.6,548.2l-28.4-0.1" class="st10"></path>
		<path d="M505.2,548l-23.5-0.1" class="st9"></path>
		<path d="M481.7,547.9l-48.6,0c-0.3,0-0.6,0.2-0.6,0.6l-0.1,7.7
			c0,0.3,0.2,0.5,0.5,0.5l50.5,0" class="st11"></path>
		<path d="M483.4,556.7l21.6,0.1" class="st9"></path>
		<path d="M505,556.8l27.5,0.3c0.7,0,1.1-0.3,1.1-1.1l-0.1-6.1" class="st10"></path>
		<path d="M533.5,550c2.2-0.5,3.3,0,3.3,1.6c0,1.3,0,2.7,0.1,4.3
			c0,0.8,0.4,1.2,1.2,1.2l38.4-0.1" class="st15"></path>
		<path d="M576.5,557l64,0.1" class="st0"></path>
		<path d="M640.5,557.1l43.2,0c0.3,0,0.5-0.2,0.5-0.5c0,0,0,0,0,0l-0.3-7.3
			c0-0.5-0.3-0.7-0.7-0.7l-39.5-1.1" class="st6"></path>
		<path d="M643.6,547.5l-66.6,0.1" class="st0"></path>
		<path d="M643.6,547.5c0,4.7-1.1,7.9-3.1,9.6" class="st101"></path>
		<path d="M576.5,557c2.4-2.6,2.6-5.7,0.5-9.3" class="st57"></path>
		<path d="M533.6,548.2c0.2,0.8,0.2,1.4-0.1,1.8" class="st100"></path>
		<path d="M505.2,548l-0.2,8.8" class="st66"></path>
		<path d="M481.7,547.9c2.2-0.2,2.8,2.8,1.7,8.8" class="st102"></path>
		<path d="M763.6,548.4c0-0.4-0.3-0.7-0.7-0.7l0,0l-74.8,0.5
			c-0.4,0-0.7,0.3-0.7,0.7v0l0.1,7.8c0,0.4,0.3,0.7,0.7,0.7l0,0l74.8-0.5c0.4,0,0.7-0.3,0.7-0.7v0L763.6,548.4" class="st6"></path>
		<path d="M161.2,565.8c-1.3,0.6-1.9,1.7-1.6,3.3c0.2,1,1,1.7,2,1.7l38.3-0.1
			c1,0,1.5-0.5,1.4-1.4l-0.1-7.3c0-0.9-0.8-1.6-1.7-1.6l-121.8,0.7c-0.3,0-0.5,0.2-0.5,0.5l-0.1,8.3c0,0.4,0.2,0.6,0.6,0.6l78.6,0.4
			c1.2,0,2.1-0.9,2.1-2.1c0-0.5-0.1-0.9-0.4-1.3c-1.7-2.2-1.3-3.8,1.1-4.8c0.3-0.1,0.6-0.1,0.9,0.3l1.5,2.1
			C161.6,565.2,161.5,565.5,161.2,565.8C161.3,565.7,161.2,565.8,161.2,565.8" class="st9"></path>
		<path d="M255.4,570.3l38.7,0c0.9,0,1.3-0.4,1.4-1.3l0.5-6.8
			c0.1-1-0.4-1.5-1.4-1.5l-39.7-0.1" class="st15"></path>
		<path d="M254.9,560.7l-50.1,0.1c-0.4,0-0.6,0.2-0.6,0.6l-0.1,8.7
			c0,0.2,0.2,0.4,0.4,0.4c0,0,0,0,0,0l50.8-0.1" class="st10"></path>
		<path d="M254.9,560.7l0.4,9.7" class="st100"></path>
		<path d="M505.2,560.7l-20.5,0.5" class="st9"></path>
		<path d="M484.7,561.2l-51.3-0.1c-0.4,0-0.7,0.2-0.7,0.7l-0.5,8.1
			c0,0.4,0.3,0.7,0.6,0.7c0,0,0,0,0,0l51.3-0.1" class="st5"></path>
		<path d="M484.3,570.5l21.2,0" class="st9"></path>
		<path d="M505.4,570.5l28.3,0.1c0.6,0,0.8-0.3,0.8-0.8l-0.6-8.4
			c0-0.6-0.4-0.9-1-0.9l-27.7,0.3" class="st10"></path>
		<path d="M505.4,570.5l-0.2-9.8" class="st66"></path>
		<path d="M484.7,561.2c-1.1,3.2-1.2,6.3-0.5,9.3" class="st94"></path>
		<path d="M577.1,560.7l-38.1,0.1c-1.1,0-1.9,0.9-1.9,1.9l0,5.9
			c0,1,0.8,1.8,1.7,1.8l0,0l38.3,0.1" class="st15"></path>
		<path d="M577.2,570.6l22.5,0.5c0.8,0,1.2-0.4,1.2-1.2l-0.3-6.8
			c0-0.6,0.4-1.1,1.1-1.2c0.2,0,0.4,0,0.6,0.1l0.7,0.4c0.7,0.4,1,0.9,0.8,1.7l-1,5.8c-0.2,0.9,0.2,1.3,1.1,1.3l36.2-0.1" class="st0"></path>
		<path d="M640.2,571.1H682c1.2,0,2.1-1,2.1-2.2c0-0.4-0.1-0.8-0.3-1.2l-0.6-0.9
			c-0.3-0.5-0.4-1.1-0.3-1.7c0.6-2,2-2.8,4.1-2.4" class="st9"></path>
		<path d="M687.1,562.8c1.8,2.2,1.8,4.2-0.3,6c-0.4,0.4-0.4,1-0.1,1.4
			c0.2,0.2,0.5,0.3,0.7,0.3l75-0.4c0.3,0,0.5-0.2,0.6-0.5l1.1-8.3c0-0.3-0.1-0.5-0.4-0.5l-76,0.3" class="st12"></path>
		<path d="M687.8,561.1l-47.3-0.7" class="st9"></path>
		<path d="M640.4,560.4l-63.3,0.4" class="st0"></path>
		<path d="M640.4,560.4l-0.3,10.7" class="st93"></path>
		<path d="M577.2,570.6c1.3-3.2,1.2-6.5-0.1-9.8" class="st57"></path>
		<path d="M687.8,561.1c-0.5,0.7-0.7,1.3-0.7,1.6" class="st103"></path>
		<path d="M300.2,560.8c-0.7,0-1.4,0.6-1.5,1.3l-1,6.8c-0.1,0.8,0.5,1.6,1.3,1.7
			c0.1,0,0.1,0,0.2,0l44.2,0.2c0.8,0,1.5-0.7,1.5-1.5l0.1-7c0-0.8-0.6-1.5-1.5-1.5c0,0,0,0,0,0H300.2" class="st15"></path>
		<path d="M429.5,562.1c0-0.7-0.6-1.3-1.3-1.3h-77.1c-0.7,0-1.3,0.6-1.3,1.3v6.8
			c0,0.7,0.6,1.3,1.3,1.3h77.1c0.7,0,1.3-0.6,1.3-1.3V562.1" class="st6"></path>
		<path d="M200.4,583.4c0.3,0,0.6-0.3,0.6-0.6l-0.1-8.4c0-0.3-0.3-0.6-0.6-0.6
			l-39.4,0.6c-0.3,0-0.6,0.2-0.6,0.5l-0.9,8.3c0,0.3,0.2,0.7,0.5,0.7c0,0,0.1,0,0.1,0L200.4,583.4" class="st9"></path>
		<path d="M484.5,574l-51.2,0c-0.4,0-0.6,0.2-0.6,0.6l0,8.3c0,0.5,0.2,0.7,0.7,0.7
			l51.2,0.1" class="st16"></path>
		<path d="M484.6,583.6l20.8,0.1" class="st9"></path>
		<path d="M505.4,583.7l28,0.2c0.4,0,0.6-0.2,0.6-0.6l0.1-9.3
			c0-0.2-0.1-0.3-0.3-0.3l-28.4,0" class="st10"></path>
		<path d="M505.3,573.8l-20.8,0.2" class="st9"></path>
		<path d="M505.3,573.8c0.8,2.9,0.8,6.2,0,9.9" class="st66"></path>
		<path d="M484.6,583.6c-1.1-3.9-1.1-7.1-0.1-9.7" class="st104"></path>
		<path d="M157.6,575.3c0-0.6-0.5-1.1-1.1-1.1l0,0l-78.4,0.1
			c-0.6,0-1.1,0.5-1.1,1.1l0,0l0,7.3c0,0.6,0.5,1.1,1.1,1.1c0,0,0,0,0,0l78.4-0.1c0.6,0,1.1-0.5,1.1-1.1l0,0L157.6,575.3" class="st9"></path>
		<path d="M255.3,583.4l39-0.2c1,0,1.5-0.5,1.5-1.5l0-6.4c0-0.9-0.5-1.4-1.4-1.4
			l-39.5,0" class="st15"></path>
		<path d="M254.9,573.9l-50.1-0.1c-0.3,0-0.5,0.2-0.5,0.5l0.1,8.8
			c0,0.3,0.2,0.5,0.5,0.5l50.4-0.2" class="st11"></path>
		<path d="M254.9,573.9c-0.7,3.4-0.6,6.5,0.4,9.5" class="st105"></path>
		<path d="M345.3,575.8c0-1-0.8-1.8-1.8-1.8l-43.4-0.1c-1,0-1.8,0.8-1.8,1.8l0,0
			l0,6.2c0,1,0.8,1.8,1.8,1.8l43.4,0.1c1,0,1.8-0.8,1.8-1.8l0,0L345.3,575.8" class="st15"></path>
		<path d="M429.4,574.7c0-0.3-0.2-0.5-0.5-0.5l-78.6,0.1c-0.3,0-0.5,0.2-0.5,0.5
			c0,0,0,0,0,0l0,8.3c0,0.3,0.2,0.5,0.5,0.5h0l78.6-0.1c0.3,0,0.5-0.2,0.5-0.5c0,0,0,0,0,0L429.4,574.7" class="st9"></path>
		<path d="M578.6,583.4l20.1,0.2c1.2,0,1.9-0.6,1.9-1.8l0-5.9
			c0-1.1-0.5-1.6-1.6-1.6h-20.5" class="st0"></path>
		<path d="M578.4,574.2l-40.6-0.2c-0.3,0-0.4,0.1-0.4,0.4l0.1,9
			c0,0.3,0.2,0.5,0.5,0.5l40.6-0.6" class="st15"></path>
		<path d="M578.4,574.2c-0.8,3.2-0.8,6.3,0.2,9.2" class="st57"></path>
		<path d="M640.6,574.3l-36.8-0.1c-0.5,0-0.8,0.3-0.8,0.8l-0.4,8.1
			c0,0.6,0.2,0.9,0.8,0.9l39.3,0" class="st0"></path>
		<path d="M642.7,583.9l40.5,0.1c0.6,0,1-0.3,1-0.9l0.1-7.6c0-0.7-0.3-1-1-1
			l-42.7-0.2" class="st9"></path>
		<path d="M642.7,583.9c1.3-4.1,0.6-7.3-2-9.6" class="st93"></path>
		<path d="M763.3,574.2c0-0.3-0.2-0.5-0.5-0.5c0,0,0,0,0,0l-75.9,0.9
			c-0.3,0-0.5,0.2-0.5,0.5l0.1,8.6c0,0.3,0.2,0.5,0.5,0.5l75.9-0.9c0.3,0,0.5-0.2,0.5-0.5c0,0,0,0,0,0L763.3,574.2" class="st9"></path>
		<path d="M429.3,587.9c0-0.4-0.3-0.7-0.7-0.7l-78.3-0.1c-0.4,0-0.7,0.3-0.7,0.7
			c0,0,0,0,0,0l0,7.8c0,0.4,0.3,0.7,0.7,0.7l78.3,0.1c0.4,0,0.7-0.3,0.7-0.7c0,0,0,0,0,0L429.3,587.9" class="st9"></path>
		<path d="M159.2,595.2c-0.1,0.3-0.3,0.5-0.6,0.4c-0.2,0-0.4-0.2-0.4-0.4l-0.7-7.3
			c0-0.3-0.3-0.5-0.5-0.5l-79.4-0.1c-0.3,0-0.6,0.2-0.6,0.5c0,0,0,0,0,0l-0.1,8c0,0.3,0.2,0.6,0.5,0.6c0,0,0,0,0,0h123.3
			c0.3,0,0.5-0.2,0.5-0.5l0,0l-0.1-8.3c0-0.3-0.2-0.5-0.5-0.5c0,0,0,0,0,0l-40.3,0.2c-0.3,0-0.5,0.2-0.5,0.5L159.2,595.2" class="st9"></path>
		<path d="M255,596.8l39.9,0.3c0.6,0,0.9-0.3,0.9-0.9l-0.4-8.4c0-0.7-0.4-1-1.1-1
			l-39.6,0.4" class="st18"></path>
		<path d="M254.7,587.2l-49.7-0.3c-0.4,0-0.7,0.3-0.7,0.7l-0.5,8.7
			c0,0.4,0.2,0.6,0.6,0.6l50.6,0" class="st11"></path>
		<path d="M254.7,587.2l0.3,9.6" class="st106"></path>
		<path d="M299.6,587.5c-0.6,0-1.1,0.5-1.2,1.1l-0.6,7.1c-0.1,0.7,0.4,1.3,1.1,1.3
			c0,0,0.1,0,0.1,0l44.7,0.1c0.7,0,1.2-0.5,1.2-1.2c0,0,0,0,0,0l-0.1-7.6c0-0.7-0.5-1.2-1.2-1.2L299.6,587.5" class="st15"></path>
		<path d="M484.1,596.8l21.2-0.3" class="st9"></path>
		<path d="M505.3,596.5l28.8,0.2" class="st10"></path>
		<path d="M534.1,596.6c1.4-0.7,2.1-0.8,2-0.3" class="st3"></path>
		<path d="M536.1,596.4l42.4-0.2" class="st15"></path>
		<path d="M578.5,596.2l21.7,0.3" class="st0"></path>
		<path d="M600.3,596.5c0.5-0.5,1.3-0.8,2.4-0.9" class="st23"></path>
		<path d="M602.6,595.6c-0.4,0.1-0.3,0.3,0.4,0.8c0.3,0.2,0.5,0.3,0.8,0.3l39.1,0.1" class="st0"></path>
		<path d="M642.9,596.8l41-0.4c0.4,0,0.7-0.3,0.7-0.7c0,0,0,0,0,0l-0.4-7.9
			c0-0.4-0.2-0.6-0.6-0.6l-40.9-0.3" class="st9"></path>
		<path d="M642.7,586.9l-39.6-0.1" class="st0"></path>
		<path d="M603.1,586.7c-1.1-0.2-2-0.2-2.5,0.2" class="st23"></path>
		<path d="M600.6,587l-22.7,0.3" class="st0"></path>
		<path d="M577.9,587.3l-40.7,0.5" class="st15"></path>
		<path d="M537.3,587.8c-0.7,0.7-1.9,0.5-3.6-0.6" class="st3"></path>
		<path d="M533.7,587.2l-27.9,0.1" class="st10"></path>
		<path d="M505.8,587.3l-21.9-0.2" class="st9"></path>
		<path d="M484,587.1h-50.3c-0.8,0-1.2,0.4-1.2,1.2l-0.2,7.4c0,0.7,0.3,1,1,1
			l50.9,0.1" class="st16"></path>
		<path d="M484,587.1l0.1,9.7" class="st104"></path>
		<path d="M505.8,587.3l-0.5,9.2" class="st66"></path>
		<path d="M533.7,587.2c-0.8,3.3-0.7,6.4,0.5,9.4" class="st107"></path>
		<path d="M537.3,587.8c1.3,3.6,0.9,6.4-1.1,8.6" class="st108"></path>
		<path d="M600.6,587l-0.3,9.5" class="st81"></path>
		<path d="M578.5,596.2l-0.6-8.9" class="st57"></path>
		<path d="M603.1,586.7l-0.5,8.9" class="st81"></path>
		<path d="M642.7,586.9l0.3,9.9" class="st93"></path>
		<path d="M688.2,587.2c-0.3,0-0.6,0.2-0.7,0.5l-1.4,7.7c-0.1,0.4,0.2,0.7,0.5,0.8
			c0,0,0.1,0,0.1,0l75.8,0.2c0.3,0,0.6-0.3,0.7-0.6l0.8-7.9c0-0.4-0.2-0.7-0.6-0.7c0,0,0,0-0.1,0L688.2,587.2" class="st9"></path>
		<path d="M201.4,601.9c0-0.7-0.6-1.2-1.2-1.2l-121.6,0.4c-0.7,0-1.2,0.6-1.2,1.2
			l0,0l0,0.1c0,0.7,0.6,1.2,1.2,1.2l121.6-0.4C200.8,603.2,201.4,602.7,201.4,601.9L201.4,601.9" class="st12"></path>
		<path d="M430.2,601.3c0-0.3-0.2-0.5-0.5-0.5l-78.4,0.1c-0.3,0-0.5,0.2-0.5,0.5
			l0,1.3c0,0.3,0.2,0.5,0.5,0.5l78.4-0.1c0.3,0,0.5-0.2,0.5-0.5l0,0L430.2,601.3" class="st12"></path>
		<path d="M664.4,681.3c0-0.8-0.6-1.4-1.4-1.4l0,0h-72.9c-0.8,0-1.4,0.6-1.4,1.4
			l0,0v45.3c0,0.8,0.6,1.4,1.4,1.4l0,0H663c0.8,0,1.4-0.6,1.4-1.4l0,0V681.3" class="st10"></path>
		<path d="M731.4,681c0-0.6-0.5-1.1-1.1-1.1c0,0,0,0,0,0h-61.5
			c-0.6,0-1.1,0.5-1.1,1.1c0,0,0,0,0,0v45.9c0,0.6,0.5,1.1,1.1,1.1c0,0,0,0,0,0h61.5c0.6,0,1.1-0.5,1.1-1.1c0,0,0,0,0,0V681" class="st10"></path>
		<path d="M784.9,683.7c0-1.5-1.2-2.7-2.7-2.7c0,0,0,0,0,0l-43.2,0.2
			c-1.5,0-2.7,1.2-2.7,2.7c0,0,0,0,0,0l0.2,36.4c0,1.5,1.2,2.7,2.7,2.7c0,0,0,0,0,0l43.2-0.2c1.5,0,2.7-1.2,2.7-2.7c0,0,0,0,0,0
			L784.9,683.7" class="st20"></path>
		<path d="M583.6,683.2c0-0.9-0.7-1.6-1.6-1.7h0l-43-0.1c-0.9,0-1.6,0.7-1.7,1.6
			l-0.1,38.2c0,0.9,0.7,1.6,1.6,1.7h0l43,0.1c0.9,0,1.6-0.7,1.7-1.6L583.6,683.2" class="st0"></path>
		<path d="M601.9,556.2c0.4,0.4,1,0.4,1.3,0c0.2-0.2,0.3-0.4,0.3-0.6l0.3-5.1
			c0-0.7-0.5-1.2-1.1-1.3c-0.3,0-0.5,0.1-0.8,0.2l-2.6,1.8c-0.9,0.7-1,1.4-0.2,2.2L601.9,556.2" class="st81"></path>
		<path d="M215.1,720c0,0.9,0.7,1.6,1.6,1.6c0,0,0,0,0,0l20-0.4
			c0.9,0,1.6-0.7,1.6-1.6l0.9-49.3c0-0.9-0.7-1.7-1.6-1.7c0,0,0,0-0.1,0l-21.1,0.1c-0.9,0-1.6,0.7-1.6,1.6l0,0L215.1,720" class="st10"></path>
		<path d="M394.8,671.3c0-0.9-0.7-1.6-1.6-1.6l-9.9-0.2c-0.9,0-1.6,0.7-1.6,1.6
			l-0.4,21.8c0,0.9,0.7,1.6,1.6,1.6l9.9,0.2c0.9,0,1.6-0.7,1.6-1.6L394.8,671.3" class="st3"></path>
		<path d="M442,715.5l0.1,25c0,0.6,0.5,1.1,1.1,1.1l11.7,0c0.6,0,1.2-0.5,1.2-1.2
			l0,0l0.3-23.4" class="st20"></path>
		<path d="M456.3,717l0.7-29.2c0-1.2-0.6-1.8-1.8-1.8l-11.9-0.2
			c-1,0-1.8,0.8-1.9,1.8c0,0,0,0,0,0.1l0.5,27.9" class="st1"></path>
		<path d="M456.3,717c-4.8-2.2-9.5-2.7-14.3-1.5" class="st109"></path>
		<path d="M408.2,723.3c0-1.6-1.3-2.8-2.8-2.8h0c-1.6,0-2.8,1.3-2.8,2.8
			c0,0,0,0,0,0c0,1.6,1.3,2.8,2.8,2.8C406.9,726.1,408.2,724.9,408.2,723.3" class="st57"></path>
		<path d="M776.6,749.9c2.7-0.7,5.4-0.9,8.2-0.6c1.4,0.2,2.7-0.3,3.7-1.4l1.4-1.5
			c1.1-1.2,0.8-1.9-0.8-1.9l-282.2,0c-1.6,0-2.3,0.8-2.3,2.3l0,1c0.1,1.5,0.8,2.2,2.3,2.2l264,0.5
			C772.8,750.6,774.7,750.4,776.6,749.9" class="st14"></path>
		<path d="M509.7,755c-0.7-0.5-1.4-0.7-2.1-0.6c-1,0.1-1.7,0.8-1.8,1.8l-0.3,5.3
			c0,0.9,0.4,1.2,1.2,1c1.4-0.4,2.5-0.6,3.4-0.5c19.4,1.2,38.9,1.7,58.4,1.6c68.7-0.4,137.4-0.4,206.1,0.1c5.1,0,8.9,0.7,10.1-5.5
			c0.1-0.7,0.6-1,1.3-1l0.8,0.1c0.7,0.1,1-0.2,0.8-0.9c-0.2-0.9-1-1.3-2.3-1.3c-71.9,0.3-162.3,0.3-271.3-0.2c-1,0-1.8,0.3-2.8,0.6
			C510.7,755.4,510.2,755.3,509.7,755" class="st14"></path>
	</g>
	<path d="M804.1,384.2l56.7,33.5c1.5,0.9,1.4,1.3-0.4,1.1c-14.9-1.5-31.9-6.7-51.8-11.7c-1.6-0.4-3.3,0.6-3.8,2.2
		c0,0.1-0.1,0.2-0.1,0.4l-0.1,1.1c-0.4,3.2,1,5.2,4.1,6l48.4,12.3c0.6,0.2,0.9,0.7,0.8,1.3c-0.1,0.4-0.4,0.7-0.7,0.8L819,442.6
		c-4,1.2-5.3,3.7-3.9,7.7l0.8,2.3c1.4,3.9,4,5.2,7.9,4c11.4-3.4,22.3-7.8,32.8-13.2c0.4-0.2,1-0.1,1.2,0.4c0.2,0.3,0.1,0.8-0.1,1
		c-9.5,10.7-19,20.9-28.5,30.6c-1.5,1.5-1.5,3.6,0,6.3c0.2,0.3,0.1,0.7-0.1,0.9c-0.4,0.5-1,0.7-1.6,0.4c-6.7-2.3-15.4-4.8-26-7.3
		c-39.4-9.3-94.7-22.8-165.9-40.5c-4-1-12.4,0.3-12.3-6.8c0.3-16.5,0.1-32.8-0.5-49l0.1-30.1c0-2.1-1.7-3.8-3.8-3.8
		c-0.1,0-0.1,0-0.2,0l-24.4,0.8c-1.6,0.1-2.8,1.4-2.8,2.9l0.1,29.2c0,0.4,0.2,0.7,0.6,0.8c0.4,0.1,0.6,0.2,0.7,0.4l-0.8,0.4
		c-0.6,0.3-0.9,0.7-0.9,1.3l0,40.3c0,1.9-0.9,2.7-2.8,2.2l-342.8-84.3l0.6-0.6c0.4-0.5,0.5-1,0.2-1.5c-2.1-4.9-3.5-10.4-4.1-16.7
		c-4.7-47.7,13.9-91.9,54.8-116.5c30.4-18.3,65.8-23.2,100.3-14.4c38.8,9.9,66.8,33.7,84,71.7c0.5,1.2,1.3,1.3,2.2,0.4
		c28.4-26.7,67.9-36.6,103.6-19.7c11.2,5.3,21.7,11.5,30.2,20.7c18,19.5,28.3,42.9,30.9,70.1c2.1,22.6,1.1,44.3,1.6,67
		c0,1.1,0.9,1.9,2,1.9c0.5,0,0.9-0.2,1.3-0.5c36.3-35.3,86.2-47.4,133.9-28C794.6,376.3,800.1,379.9,804.1,384.2z" class="st110"></path>
	<path d="M891.7,346.6l-1.9,2.3c-0.4,0.5-1,0.9-1.7,1c-1.7,0.4-3,1.2-4.1,2.3c-0.5,0.5-1,0.8-1.7,0.8l-9.1,0.4
		c-2.7-20.9-5.4-41.8-7.9-62.7c-1.3-10.9,21.4-13.7,22.3,1C888.7,310.1,890.1,328.4,891.7,346.6z" class="st111"></path>
	<path d="M245.7,339.6l342.8,84.3c1.9,0.5,2.8-0.3,2.8-2.2l0-40.3c0-0.6,0.3-1.1,0.9-1.3l0.8-0.4l29.6-0.3
		c0.6,16.2,0.8,32.6,0.5,49c-0.1,7.1,8.3,5.8,12.3,6.8c71.2,17.7,126.5,31.2,165.9,40.5c10.6,2.5,19.2,4.9,26,7.3
		c0.7,0.2,1.2,0.1,1.6-0.4c0.2-0.3,0.3-0.6,0.1-0.9c1.2,1.2,3.4,2.1,6.5,2.6l20.8,4.2c2.3,1.7,4.6,2,7.2,1c2.2,11.7,2.8,23,1.8,33.9
		c-0.2,2.5-1.4,4-3.5,4.6c-6.2-4.1-11.8-4.5-18.5-6.2c-29.7-7.5-59.4-14.8-89.2-21.9c-30.6-7.3-64.3-16.5-96.8-23.7
		c-9.7-2.2-20.3-4.8-31.8-7.9c-21.8-5.9-51.5-12.4-65.8-15.9c-105.7-25.6-188.5-45.8-248.3-60.6c-77.8-19.2-146.4-35.9-206-50
		c-3.4-0.8-6.5-0.4-10.1-0.3c-1.9-12.6-2.2-25.3-0.9-37.9c0.1-0.8,0.5-1.1,1.3-0.9L245.7,339.6z" class="st112"></path>
	<path d="M913.9,352.8l16.4,6.3l-22.8,38.6c-0.1,0.2,0,0.4,0.1,0.4c0.1,0.1,0.3,0,0.4,0l48.8-45
		c0.7-0.7,1.9-0.6,2.6,0.1c0.2,0.2,0.3,0.4,0.4,0.7l0.4,1.2c0.6,1.8,0.3,3.4-1.1,4.8L914,405.4c-1.2,1.2-1,1.4,0.5,0.7l49.6-22.7
		c0.7-0.3,1.6,0,1.9,0.7c0,0,0,0,0,0.1l0.4,1c0.6,1.7,0.1,2.9-1.4,3.8l-51.5,27.9c-0.2,0.1-0.4,0.3-0.3,0.6c0.1,0.2,0.3,0.4,0.6,0.3
		l0,0c14.6-2.3,28.8-6.3,43.5-8.6c4-0.6,6.6,0.2,6.1,5c-0.2,2.1-1.8,3.9-3.9,4.3l-45.4,9.4c-0.2,0-0.3,0.2-0.2,0.4
		c0,0.1,0.1,0.2,0.2,0.2l32.1,10.3c4.8,1.5,6,4.5,3.6,9l-1.1,2.1c-1.3,2.5-4.3,3.6-6.9,2.6l-25-9.7c-0.3-0.1-0.5,0.1-0.6,0.3
		c-0.1,0.2,0,0.4,0.1,0.5l34.3,24.5c4.6,3.3,5.3,7.2,2,11.8l-1.6,2.3c-3.5,4.9-7.6,5.4-12.2,1.4L911,459.2c-0.3-0.3-0.8-0.2-1,0.1
		c-0.2,0.2-0.2,0.6-0.1,0.8c4.4,8.5,8.9,16.7,13.2,24.6c2.7,4.9,1.3,8.3-4.1,10.2c-2.5,0.9-4.3,0.1-5.4-2.3l-17-35.5
		c-4.3-2.6-9.2-2.6-14.8,0l-17.9,32.5c-2.5,1-4.9,0.7-7.2-1c-2.6-2.6-3.9-4.3-1.9-8.1c3.9-7.6,7.5-14.6,10.6-21
		c1.6-3.3,1.1-3.7-1.6-1.2l-27.9,26c-3.2-0.5-5.3-1.4-6.5-2.6c-1.5-2.7-1.5-4.8,0-6.3c9.5-9.7,19-20,28.5-30.6
		c0.3-0.4,0.3-1-0.1-1.3c-0.3-0.3-0.7-0.3-1-0.1c-10.5,5.4-21.5,9.8-32.8,13.2c-3.9,1.2-6.6-0.2-7.9-4l-0.8-2.3
		c-1.4-3.9-0.1-6.5,3.9-7.7l38.3-11.4c0.6-0.2,0.9-0.8,0.7-1.4c-0.1-0.4-0.4-0.6-0.8-0.7l-48.4-12.3c-3.2-0.8-4.5-2.8-4.1-6l0.1-1.1
		c0.2-1.7,1.8-2.9,3.5-2.7c0.1,0,0.2,0,0.4,0.1c19.9,5,36.9,10.2,51.8,11.7c1.8,0.2,1.9-0.2,0.4-1.1l-56.7-33.5l6.9-9.5
		c0.9-1.2,2.6-1.6,3.9-0.8l41.9,26.7c0.4,0.3,1,0.2,1.3-0.3c0.2-0.3,0.2-0.8-0.1-1.1l-51.1-60.7c-3.4-4-3.1-7.8,0.9-11.2l1.9-1.6
		c4.2-3.6,8-3.3,11.5,1l46.1,55.6c0.2,0.2,0.5,0.3,0.7,0.1c0.2-0.1,0.2-0.4,0.2-0.6l-23.8-63.8c-0.7-1.8-0.3-3.2,1.2-4.4l0.9-0.8
		c1-0.9,2.6-0.7,3.5,0.3c0.2,0.2,0.3,0.4,0.4,0.7l22.5,55.6c5.6,13.8,6.6,13.5,3-0.9c-0.7-2.8-1.6-7.9-2.6-15.1l9.1-0.4
		c0.7,0,1.2-0.3,1.7-0.8c1.1-1.2,2.4-2,4.1-2.3c0.7-0.2,1.2-0.5,1.7-1l1.9-2.3l4,31.5c0,0.1,0.1,0.1,0.2,0.1c0.1,0,0.1-0.1,0.1-0.2
		l5.6-69.8c0.4-5.3,3.1-7,8.1-5.3l1.5,0.5c4.7,1.7,6.7,5,5.8,9.9l-7.7,45.7c-0.1,0.8,0.1,0.9,0.7,0.4
		C911.7,357.9,913,355.7,913.9,352.8z" class="st113"></path>
	<path d="M930.4,359.1l-16.4-6.3l21.6-39.8c2.5-4.6,5.9-5.4,10.2-2.5l2.9,2c4.4,3,5.2,6.7,2.5,11.3L930.4,359.1z" class="st114"></path>
	<path d="M95.4,341.5c3.6-0.1,6.7-0.5,10.1,0.3c59.6,14.1,128.2,30.8,206,50c59.9,14.8,142.6,35,248.3,60.6
		c14.3,3.5,44,10,65.8,15.9c11.5,3.1,22.1,5.8,31.8,7.9c32.5,7.2,66.2,16.4,96.8,23.7c29.8,7.1,59.5,14.4,89.2,21.9
		c6.7,1.7,12.3,2,18.5,6.2c-3.9,2.5-5.5,3-4.8,1.4L99.1,345c-0.6-0.2-0.9,0.1-1,0.7c-0.1,0.3,0,0.6,0.1,0.8L95.4,341.5z" class="st115"></path>
	<path d="M857.2,529.5c-12.3,4.3-21.6,7.1-28,8.6c-4.7,1.1-10.5,1.4-17.3,0.9c2.3-4.8,2.5-9.2-3.3-10.5
		c-39.6-9.1-93.8-22.2-162.6-39.5c-2.9-0.7-4.4-0.3-4.3,1.4c-2.8-1.7-6.4-3.1-10.8-4.2c-34.1-8.5-68.3-16.8-102.6-25.1
		c-7.2-3-14.9-4.9-22.8-5.5l-155.4-38.1c-1.2-1.9-3-3.1-5.2-3.5c-0.7-0.1-1,0.2-1,0.8l0.2,33.8l-8.7-2.1c-0.6-4.2-3.6-7.6-9-10
		c-3.3-1.5-6-2.8-8.1-3.9c-3.7-2-6.4-3.2-8.1-3.8c-4.3-1.4-8.6-2.6-12.9-3.7c-4.7-1.2-9-2.4-12.8-3.9c-7.9-3-14.8-5.2-20.6-6.6
		c-10.9-2.7-20.3-5.4-28.2-8.2c-6.5-2.3-12.8-3.3-19.4-4.6c-2.5-0.5-6.1-1.7-10.8-3.6c-3.8-1.5-7.6-2.4-11.3-2.7l-79-19.2
		c-1.7-0.4-3.1-1.5-3.8-3l-13.4-26.6c-0.1-0.2-0.2-0.5-0.1-0.8c0.1-0.6,0.4-0.8,1-0.7L857.2,529.5z" class="st116"></path>
	<path d="M622.7,379.4l-29.6,0.3c-0.1-0.2-0.4-0.4-0.7-0.4c-0.4-0.1-0.6-0.4-0.6-0.8l-0.1-29.2c0-1.6,1.2-2.9,2.8-2.9
		l24.4-0.8c2.1-0.1,3.9,1.6,3.9,3.6c0,0.1,0,0.1,0,0.2L622.7,379.4z" class="st117"></path>
	<path d="M335.6,446.5c-42.3-9.9-84.1-20.1-125.4-30.5c-6.7-1.7-9-5.4-11.3-11.4l-4.5-9.3c3.7,0.3,7.5,1.2,11.3,2.7
		c4.8,1.9,8.4,3.1,10.8,3.6c6.6,1.4,12.9,2.3,19.4,4.6c7.9,2.8,17.3,5.6,28.2,8.2c5.8,1.4,12.7,3.6,20.6,6.6
		c3.8,1.4,8.1,2.7,12.8,3.9c4.4,1.1,8.7,2.3,12.9,3.7c1.7,0.6,4.4,1.8,8.1,3.8c2.1,1.1,4.8,2.4,8.1,3.9
		C332,439,335,442.3,335.6,446.5z" class="st118"></path>
	<path d="M198.9,404.6c2.2,6,4.6,9.7,11.3,11.4c41.3,10.4,83.1,20.6,125.4,30.5l8.7,2.1l1.5,30.1l-148.4,0.3
		c0.1-1.5-0.4-2.8-1.5-4c-0.5-0.5-0.7-1.1-0.7-1.8c0.1-20.3,0.2-40.7,0.3-61C195.5,409.6,196.6,407,198.9,404.6z" class="st110"></path>
	<path d="M350.2,417.5l-0.1,61c0.3,0.9-1.1,1-4.4,0.2l-1.5-30.1l-0.2-33.8c0-0.7,0.3-0.9,1-0.8
		C347.3,414.4,349,415.6,350.2,417.5z" class="st117"></path>
	<path d="M350.2,417.5l155.4,38.1l0.1,62.5c-2.2,0.7-3.6,1.3-5.9,0.5c-23.7-8.2-47.5-15.9-71.5-23.2
		c-1-0.3-2.6-1.3-4.8-2.9l0.3-9.5c0-1.7-1.3-3.1-3-3.1c0,0,0,0-0.1,0l-69.7-0.5l-1-0.8L350.2,417.5z" class="st119"></path>
	<path d="M528.4,461.1l0,78.5l-22.1-0.3l-0.6-21.2l-0.1-62.5C513.6,456.2,521.2,458,528.4,461.1z" class="st120"></path>
	<path d="M896.5,457.1l0,209.9c-2,0.4-3.5,1.2-4.6,2.4c-2.6-0.3-4.7,0.4-6.3,2c-0.5,0.5-0.8,1.1-0.9,1.9
		c-0.8,11.9,0.5,23.5,4.2,34.9l4,20.4c-0.3,0.3-0.7,0.4-1.4,0.3l-8.8-28.5l-1.1-18.8l0-224.3C887.3,454.5,892.2,454.5,896.5,457.1z" class="st121"></path>
	<path d="M856.5,488.6l-20.8-4.2l27.9-26c2.7-2.5,3.2-2.1,1.6,1.2c-3.1,6.4-6.7,13.4-10.6,21
		C852.7,484.3,853.9,486,856.5,488.6z" class="st110"></path>
	<path d="M528.4,461.1c34.3,8.3,68.5,16.6,102.6,25.1c4.4,1.1,8,2.5,10.8,4.2c0,14.1,0,28.2,0.1,42.3
		c0,2.8,0.3,5,1,6.8c-38.3,1.4-74.8,1.6-109.4,0.7c-2.2-0.1-3.9-0.2-5.2-0.5L528.4,461.1z" class="st122"></path>
	<path d="M350.1,478.6l1,0.8l-0.9,1.3c-0.4,0.6-0.6,1.2-0.6,1.9l0,29.2c-1.3-0.6-2.6,0-4.1,1.7l-283.9,0
		c-2.3-10.2-2.7-21.3-1.4-33.3c0.1-0.8,0.6-1.3,1.4-1.3l135.7,0.2l148.4-0.3C349,479.5,350.4,479.4,350.1,478.6z" class="st115"></path>
	<path d="M351,479.3l69.7,0.5c1.7,0,3,1.4,3,3c0,0,0,0,0,0.1l-0.3,9.5c-0.1,0.6-0.3,1.2-0.8,1.7
		c-0.5,0.5-0.7,1.2-0.6,1.9c1.2,14.4,1.1,28.8-0.4,43.1l-70.5,0c-0.7,0-1.2-0.5-1.3-1.2l-0.3-26.4l0-29.2c0-0.7,0.2-1.3,0.6-1.9
		L351,479.3z" class="st123"></path>
	<path d="M812,539l-169.1,0.4c-0.6-1.7-0.9-4-1-6.8c0-14.1-0.1-28.2-0.1-42.3c-0.1-1.7,1.3-2.1,4.3-1.4
		c68.8,17.3,123,30.4,162.6,39.5C814.5,529.8,814.3,534.2,812,539z" class="st124"></path>
	<path d="M423.5,492.5c2.2,1.6,3.8,2.6,4.8,2.9c24,7.3,47.8,15,71.5,23.2c2.3,0.8,3.7,0.2,5.9-0.5l0.6,21.2l-84.7,0
		c1.5-14.4,1.7-28.8,0.4-43.1c-0.1-0.7,0.2-1.4,0.6-1.9C423.1,493.7,423.4,493.1,423.5,492.5z" class="st125"></path>
	<path d="M345.4,513.4c0,2.8-0.4,5.1-1.2,6.7l-88-0.5H74.8l-13.3-6.2L345.4,513.4z" class="st126"></path>
	<path d="M256.1,519.5c-1.8,4-1.7,8.2,0.5,12.5l-178.8,0.2c-0.7,0-1.3-0.6-1.3-1.3c0,0,0,0,0,0
		c0.2-4.5-0.4-8.3-1.7-11.4H256.1z" class="st119"></path>
	<path d="M344.2,520.1l0.6,11.5c0,0.8-0.4,1.2-1.2,1.2l-86.9-0.8c-2.1-4.3-2.3-8.5-0.5-12.5L344.2,520.1z" class="st122"></path>
	<path d="M78.1,537.9L157,538c0.7,0,1.2,0.5,1.2,1.2l0,2.2c0,0.7-0.5,1.2-1.2,1.2l-78.9-0.1c-0.7,0-1.2-0.5-1.2-1.2
		l0-2.2C76.9,538.4,77.5,537.9,78.1,537.9z" class="st119"></path>
	<path d="M161,538l39.1,0.1c0.8,0,1.5,0.7,1.5,1.5l0,1.6c0,0.8-0.7,1.5-1.5,1.5l-39.1-0.1c-0.8,0-1.5-0.7-1.5-1.5
		l0-1.6C159.5,538.7,160.2,538,161,538z" class="st119"></path>
	<path d="M205.7,538.1l88.9,0.6c0.8,0,1.5,0.7,1.5,1.5l0,1.2c0,0.8-0.7,1.5-1.5,1.5l-88.9-0.6c-0.8,0-1.5-0.7-1.5-1.5
		l0-1.2C204.2,538.8,204.9,538.1,205.7,538.1z" class="st120"></path>
	<path d="M299.5,538.6l43.8,0.1c0.8,0,1.5,0.7,1.5,1.5l0,1c0,0.8-0.7,1.5-1.5,1.5l-43.8-0.1c-0.8,0-1.5-0.7-1.5-1.5
		l0-1C298.1,539.3,298.7,538.6,299.5,538.6z" class="st127"></path>
	<path d="M78.1,546.4l78.7,0.1c0.6,0,1.2,0.5,1.2,1.2l0,8.3c0,0.6-0.5,1.2-1.2,1.2L78.1,557c-0.6,0-1.2-0.5-1.2-1.2
		l0-8.3C77,546.9,77.5,546.4,78.1,546.4z" class="st119"></path>
	<path d="M255.2,557.1l-1-10.5l40-0.2c1.3,0,1.9,0.6,1.9,1.9l0,6.8c0,1.4-0.7,2.1-2.1,2.1L255.2,557.1z" class="st127"></path>
	<path d="M299.8,546.6l43.8,0.1c0.8,0,1.4,0.6,1.4,1.4l0,7.7c0,0.8-0.6,1.4-1.4,1.4l-43.8-0.1c-0.8,0-1.4-0.6-1.4-1.4
		l0-7.7C298.4,547.2,299,546.6,299.8,546.6z" class="st127"></path>
	<path d="M199.8,557l-38.6,0.1c-0.5,0-0.9-0.4-1-0.9l-0.8-8.6c0-0.5,0.3-1,0.9-1c0,0,0.1,0,0.1,0l40.2,0.1
		c0.5,0,1,0.4,1,1c0,0,0,0.1,0,0.1l-0.9,8.4C200.7,556.7,200.3,557,199.8,557z" class="st119"></path>
	<path d="M254.2,546.7l1,10.5l-50.1,0c-0.7,0-1-0.3-1-1l0-8.3c0-0.8,0.4-1.1,1.1-1.1L254.2,546.7z" class="st120"></path>
	<path d="M881.7,681.4l1.1,18.8c-1.5,0.6-2.9-0.6-4.4-3.5c-0.4-0.7-1-1.2-1.8-1.3c-5-1.1-8.8,0.4-11.5,4.5
		c-0.5,0.7-0.5,1.5-0.2,2.3l16.7,39.8c0.1,0.1,0,0.3-0.1,0.4l-0.5,0.3c0,0,0,0,0,0c-5.6-10.5-11.7-20.8-18.2-30.8
		c-3.8-5.9-8.4-6.5-13.6-1.9l-0.9,0.8c-4.9,4.3-5.4,9-1.4,14.2l32.1,41.4c0.1,0.2,0.1,0.3,0.1,0.4l-0.4,0.5c-0.2,0.2-0.6,0.3-0.8,0
		c0,0,0,0,0,0l-27.3-24.7c-3.7-3.3-6.8-2.9-9.3,1.4l-0.9,1.6c-2.5,4.4-1.7,7.9,2.5,10.7l42.6,28.5c1,0.7,0.9,1-0.3,1l-8.9,0.3
		l-59.3,0c-0.6,0-0.9-0.3-0.7-0.9c2.3-8,5.9-15.2,10.8-21.9c0.8-1.1,0.5-2.6-0.5-3.3c-0.8-0.6-1.9-0.6-2.7-0.1
		c-3,2-4.3,7.2-6.8,10.1c-1.2,1.4-1.5,1.2-1.1-0.6l4.8-21.2c0.3-1.5-0.3-2.4-1.8-2.6l-0.5-0.1c-1.5-0.2-2.4,0.5-2.6,2
		c-0.6,4.1-1.6,8.1-3,12.1c-0.6,1.6-0.9,1.5-1-0.1c-0.5-5.6-0.4-11.1,0.2-16.4c0.4-3.6-1.4-6.2-5.1-5.6c-0.2-1.7-1.7-1.4-4.5,1.1
		c-1.1,0.9-2.5,1.2-4.3,0.8c-1.8-0.4-3.2-0.6-4.1-0.5c-6.7,0.4-13.4,0.8-20.3,1.1c-0.7-2.9,0.3-5.6,2.7-8.2c0.5-0.5,0.7-1.1,0.5-1.9
		c-0.2-1.1-1-1.8-2.3-2l10.8,0.1c2.4,0,4.4-1.9,4.4-4.3l0.9-44.2c0-2.4-1.8-4.3-4.1-4.4l-8.9-0.4c-1.8-0.1-3.2-1.6-3.1-3.4
		c0,0,0,0,0,0l1.3-22.6c0.1-2,1.8-3.6,3.8-3.6c10,0.1,22.4,1.4,31.9-2.1c18-6.6,15.3-11.8,16.7-28.7c0.1-0.7-0.2-1.3-0.8-1.7
		c-1.1-0.8-2.7-1-4.7-0.7c3.5,0,5.1-1.3,4.9-3.7c-0.2-2-1.9-3.6-4-3.6l-177.7,0.1c-1.1,0-2.2-0.6-3-1.8c-0.1-0.1,0.1-0.5,0.5-1.4
		l1.1,0.6c0.6,0.3,1.3,0.5,2,0.5c52.1,0.4,104.2,0.4,156.3,0c1.5,0,2.9-0.1,4.2-0.2c6.4-0.8,7.7-1.6,3.7-2.4l3.6-0.6
		c0.8-0.1,1.4-0.9,1.2-1.8c0,0,0,0,0,0c-0.2-1.2-0.9-1.9-2-1.9l0.3-8c1.2-0.5,1.8-1.5,1.8-2.8c0-0.8-0.3-1.3-1-1.5l-0.9-0.4
		c0.8-1.8,0.6-4.7-0.6-8.9c1.4-0.6,1.3-2-0.1-4.3l1.8-1l5.3,0.4c1.6,0.1,3.1-1,3.4-2.5l0.7-3.1c0.4-2-0.4-2.9-2.4-2.9l-7.1,0.1
		c-0.7,0.2-1,0.1-1.1-0.5c1.6,0.1,2.8-0.3,3.6-1.2c0.5-0.6,0.5-1.4,0.1-2c-0.6-0.8-1.6-1-3.1-0.6c-0.2-0.4,0.2-0.6,1-0.6l6.9,0.1
		c0.8,0,1.3-0.3,1.5-1.1c0.7-2.4,0.8-5.2,0.2-8.6l41.1,0.4c2,0,3.6,1.6,3.6,3.6l0.1,126.2c0,0.7,0.3,1.2,0.9,1.6
		C873.1,680.8,877.2,681.7,881.7,681.4z" class="st110"></path>
	<path d="M351.6,547.2l76.4,0.1c1,0,1.8,0.8,1.8,1.8l0,6.1c0,1-0.8,1.8-1.8,1.8l-76.4-0.1c-1,0-1.8-0.8-1.8-1.8l0-6.1
		C349.8,548,350.6,547.2,351.6,547.2z" class="st119"></path>
	<path d="M643.6,547.5c0,4.7-1.1,7.9-3.1,9.6l-64-0.1c2.4-2.6,2.6-5.7,0.5-9.3L643.6,547.5z M601.9,556.2
		c0.4,0.4,1,0.4,1.3,0c0.2-0.2,0.3-0.4,0.3-0.6l0.3-5.1c0-0.7-0.5-1.2-1.1-1.3c-0.3,0-0.5,0.1-0.8,0.2l-2.6,1.8
		c-0.9,0.7-1,1.4-0.2,2.2L601.9,556.2z" class="st112"></path>
	<path d="M643.6,547.5l39.5,1.1c0.5,0,0.7,0.3,0.7,0.7l0.3,7.3c0,0.3-0.2,0.5-0.4,0.5c0,0,0,0,0,0l-43.2,0
		C642.6,555.4,643.6,552.2,643.6,547.5z" class="st119"></path>
	<path d="M481.7,547.9c2.2-0.2,2.8,2.8,1.7,8.8l-50.5,0c-0.3,0-0.5-0.2-0.5-0.5l0.1-7.7c0-0.3,0.3-0.6,0.6-0.6
		L481.7,547.9z" class="st124"></path>
	<path d="M481.7,547.9l23.5,0.1l-0.2,8.8l-21.6-0.1C484.5,550.7,483.9,547.8,481.7,547.9z" class="st125"></path>
	<path d="M533.6,548.2c0.2,0.8,0.2,1.4-0.1,1.8l0.1,6.1c0,0.7-0.3,1.1-1.1,1.1l-27.5-0.3l0.2-8.8L533.6,548.2z" class="st120"></path>
	<path d="M577,547.7c2.1,3.7,1.9,6.8-0.5,9.3l-38.4,0.1c-0.8,0-1.2-0.4-1.2-1.2c-0.1-1.6-0.1-3-0.1-4.3
		c0-1.6-1.1-2.2-3.3-1.6c0.3-0.5,0.3-1.1,0.1-1.8L577,547.7z" class="st127"></path>
	<path d="M688.1,548.2l74.8-0.5c0.4,0,0.7,0.3,0.7,0.7l0.1,7.8c0,0.4-0.3,0.7-0.7,0.7l-74.8,0.5
		c-0.4,0-0.7-0.3-0.7-0.7l-0.1-7.8C687.4,548.6,687.7,548.2,688.1,548.2z" class="st119"></path>
	<path d="M813.4,548.3c-1.1,4.1-0.6,6.8,1.5,8.3c-0.8,0-1.2,0.2-1,0.6h-47.2c-0.4,0-0.6-0.2-0.6-0.5l-0.2-8.2
		c0-0.3,0.2-0.5,0.5-0.5L813.4,548.3z" class="st119"></path>
	<path d="M823.5,547c0.6,3.4,0.5,6.2-0.2,8.6c-0.2,0.7-0.7,1.1-1.5,1.1l-6.9-0.1c-2.1-1.4-2.6-4.2-1.5-8.3L823.5,547z" class="st115"></path>
	<path d="M601.9,556.2l-2.8-2.8c-0.8-0.8-0.7-1.6,0.2-2.2l2.6-1.8c0.6-0.4,1.3-0.2,1.7,0.3c0.1,0.2,0.2,0.5,0.2,0.7
		l-0.3,5.1c0,0.5-0.5,0.9-1,0.9C602.3,556.5,602.1,556.4,601.9,556.2z" class="st128"></path>
	<path d="M161.2,565.8c0.3-0.1,0.4-0.4,0.3-0.7c0,0,0-0.1-0.1-0.1l-1.5-2.1c-0.2-0.3-0.5-0.4-0.9-0.3
		c-2.4,1-2.8,2.6-1.1,4.8c0.7,0.9,0.5,2.3-0.4,3c-0.4,0.3-0.8,0.4-1.3,0.4l-78.6-0.4c-0.4,0-0.6-0.2-0.6-0.6l0.1-8.3
		c0-0.3,0.2-0.5,0.5-0.5l121.8-0.7c0.9,0,1.7,0.7,1.7,1.6l0.1,7.3c0,1-0.5,1.4-1.4,1.4l-38.3,0.1c-1,0-1.8-0.7-2-1.7
		C159.3,567.5,159.9,566.4,161.2,565.8z" class="st125"></path>
	<path d="M254.9,560.7l0.4,9.7l-50.8,0.1c-0.2,0-0.4-0.2-0.4-0.4c0,0,0,0,0,0l0.1-8.7c0-0.4,0.2-0.6,0.6-0.6
		L254.9,560.7z" class="st120"></path>
	<path d="M255.4,570.3l-0.4-9.7l39.7,0.1c1,0,1.5,0.5,1.4,1.5l-0.5,6.8c-0.1,0.9-0.5,1.3-1.4,1.3L255.4,570.3z" class="st127"></path>
	<path d="M505.4,570.5l-0.2-9.8l27.7-0.3c0.6,0,0.9,0.3,1,0.9l0.6,8.4c0,0.6-0.2,0.8-0.8,0.8L505.4,570.5z" class="st120"></path>
	<path d="M640.4,560.4l-0.3,10.7l-36.2,0.1c-0.9,0-1.3-0.4-1.1-1.3l1-5.8c0.1-0.8-0.2-1.3-0.8-1.7l-0.7-0.4
		c-0.5-0.3-1.2-0.1-1.5,0.4c-0.1,0.2-0.1,0.4-0.1,0.6l0.3,6.8c0,0.8-0.4,1.2-1.2,1.2l-22.5-0.5c1.3-3.2,1.2-6.5-0.1-9.8L640.4,560.4
		z" class="st112"></path>
	<path d="M300.2,560.8h43.4c0.8,0,1.5,0.7,1.5,1.5c0,0,0,0,0,0l-0.1,7c0,0.8-0.7,1.5-1.5,1.5l-44.2-0.2
		c-0.8,0-1.5-0.7-1.5-1.5c0-0.1,0-0.1,0-0.2l1-6.8C298.8,561.3,299.4,560.8,300.2,560.8z" class="st127"></path>
	<path d="M351.2,560.8h77.1c0.7,0,1.3,0.6,1.3,1.3v6.8c0,0.7-0.6,1.3-1.3,1.3h-77.1c-0.7,0-1.3-0.6-1.3-1.3v-6.8
		C349.9,561.4,350.5,560.8,351.2,560.8z" class="st119"></path>
	<path d="M484.7,561.2c-1.1,3.2-1.2,6.3-0.5,9.3l-51.3,0.1c-0.4,0-0.7-0.3-0.7-0.7c0,0,0,0,0,0l0.5-8.1
		c0-0.4,0.3-0.7,0.7-0.7L484.7,561.2z" class="st126"></path>
	<path d="M505.2,560.7l0.2,9.8l-21.2,0c-0.8-3-0.6-6.1,0.5-9.3L505.2,560.7z" class="st125"></path>
	<path d="M577.1,560.7c1.3,3.3,1.3,6.6,0.1,9.8l-38.3-0.1c-1,0-1.7-0.8-1.7-1.8l0,0l0-5.9c0-1.1,0.9-1.9,1.9-1.9
		L577.1,560.7z" class="st127"></path>
	<path d="M640.4,560.4l47.3,0.7c-0.5,0.7-0.7,1.3-0.7,1.6c-2.2-0.4-3.5,0.4-4.1,2.4c-0.2,0.6-0.1,1.2,0.3,1.7l0.6,0.9
		c0.6,1,0.3,2.4-0.7,3c-0.3,0.2-0.7,0.3-1.1,0.3h-41.8L640.4,560.4z" class="st125"></path>
	<path d="M687.1,562.8c0-0.4,0.2-0.9,0.7-1.6l76-0.3c0.3,0,0.5,0.2,0.4,0.5l-1.1,8.3c0,0.3-0.2,0.5-0.6,0.5l-75,0.4
		c-0.5,0-1-0.4-1-1c0-0.3,0.1-0.6,0.3-0.7C688.8,567,688.9,565,687.1,562.8z" class="st113"></path>
	<path d="M813.4,560.9c0.1,0.5,0.4,0.7,1.1,0.5c-2,2.4-2,5.1,0.1,8l-1.8,1l-46.2-0.2c-0.3,0-0.6-0.3-0.6-0.6l0,0
		l-0.1-8.2c0-0.3,0.2-0.4,0.5-0.4H813.4z" class="st119"></path>
	<path d="M814.6,569.4c-2.1-2.9-2.1-5.6-0.1-8l7.1-0.1c2,0,2.8,0.9,2.4,2.9l-0.7,3.1c-0.3,1.6-1.8,2.6-3.4,2.5
		L814.6,569.4z" class="st118"></path>
	<path d="M200.4,583.4l-40.4,0.5c-0.3,0-0.6-0.3-0.6-0.6c0,0,0-0.1,0-0.1l0.9-8.3c0-0.3,0.3-0.5,0.6-0.5l39.4-0.6
		c0.3,0,0.6,0.3,0.6,0.6l0.1,8.4C201,583.1,200.7,583.4,200.4,583.4z" class="st125"></path>
	<path d="M505.3,573.8c0.8,2.9,0.8,6.2,0,9.9l-20.8-0.1c-1.1-3.9-1.1-7.1-0.1-9.7L505.3,573.8z" class="st125"></path>
	<path d="M78.1,574.3l78.4-0.1c0.6,0,1.1,0.5,1.1,1.1l0,7.3c0,0.6-0.5,1.1-1.1,1.1l-78.4,0.1c-0.6,0-1.1-0.5-1.1-1.1
		l0-7.3C77,574.8,77.5,574.3,78.1,574.3z" class="st125"></path>
	<path d="M254.9,573.9c-0.7,3.4-0.6,6.5,0.4,9.5l-50.4,0.2c-0.3,0-0.5-0.2-0.5-0.5l-0.1-8.8c0-0.3,0.2-0.5,0.5-0.5
		L254.9,573.9z" class="st124"></path>
	<path d="M254.9,573.9l39.5,0c0.9,0,1.4,0.5,1.4,1.4l0,6.4c0,1-0.5,1.5-1.5,1.5l-39,0.2
		C254.3,580.4,254.2,577.3,254.9,573.9z" class="st127"></path>
	<path d="M300.1,573.9l43.4,0.1c1,0,1.8,0.8,1.8,1.8l0,6.2c0,1-0.8,1.8-1.8,1.8l-43.4-0.1c-1,0-1.8-0.8-1.8-1.8l0-6.2
		C298.3,574.7,299.1,573.9,300.1,573.9z" class="st127"></path>
	<path d="M350.2,574.3l78.6-0.1c0.3,0,0.5,0.2,0.5,0.5l0,8.3c0,0.3-0.2,0.5-0.5,0.5l-78.6,0.1c-0.3,0-0.5-0.2-0.5-0.5
		l0-8.3C349.7,574.5,349.9,574.3,350.2,574.3z" class="st125"></path>
	<path d="M484.5,574c-1.1,2.5-1,5.7,0.1,9.7l-51.2-0.1c-0.5,0-0.7-0.2-0.7-0.7l0-8.3c0-0.4,0.2-0.6,0.6-0.6L484.5,574
		z" class="st129"></path>
	<path d="M505.3,573.8l28.4,0c0.2,0,0.3,0.1,0.3,0.3l-0.1,9.3c0,0.4-0.2,0.6-0.6,0.6l-28-0.2
		C506.2,580,506.2,576.7,505.3,573.8z" class="st120"></path>
	<path d="M578.4,574.2c-0.8,3.2-0.8,6.3,0.2,9.2L538,584c-0.3,0-0.5-0.2-0.5-0.5l-0.1-9c0-0.3,0.1-0.4,0.4-0.4
		L578.4,574.2z" class="st127"></path>
	<path d="M642.7,583.9c1.3-4.1,0.6-7.3-2-9.6l42.7,0.2c0.7,0,1,0.3,1,1l-0.1,7.6c0,0.6-0.3,0.9-1,0.9L642.7,583.9z" class="st125"></path>
	<path d="M686.9,574.6l75.9-0.9c0.3,0,0.5,0.2,0.5,0.5l0.1,8.6c0,0.3-0.2,0.5-0.5,0.5l-75.9,0.9
		c-0.3,0-0.5-0.2-0.5-0.5l-0.1-8.6C686.3,574.9,686.6,574.6,686.9,574.6z" class="st125"></path>
	<path d="M812.9,574.7c1.2,4.2,1.4,7.2,0.6,8.9l-46.7-0.5c-0.6,0-0.9-0.3-0.9-1l0.5-7.2c0-0.6,0.5-1,1.1-1
		L812.9,574.7z" class="st125"></path>
	<path d="M578.4,574.2h20.5c1.1,0,1.6,0.5,1.6,1.6l0,5.9c0,1.2-0.6,1.8-1.9,1.8l-20.1-0.2
		C577.6,580.4,577.5,577.4,578.4,574.2z" class="st112"></path>
	<path d="M640.6,574.3c2.6,2.3,3.3,5.5,2,9.6l-39.3,0c-0.6,0-0.8-0.3-0.8-0.9l0.4-8.1c0-0.5,0.3-0.8,0.8-0.8
		L640.6,574.3z" class="st112"></path>
	<path d="M350.3,587.1l78.3,0.1c0.4,0,0.7,0.3,0.7,0.7l0,7.8c0,0.4-0.3,0.7-0.7,0.7l-78.3-0.1c-0.4,0-0.7-0.3-0.7-0.7
		l0-7.8C349.7,587.4,350,587.1,350.3,587.1z" class="st125"></path>
	<path d="M159.2,595.2l0.5-7.5c0-0.3,0.3-0.5,0.5-0.5l40.3-0.2c0.3,0,0.5,0.2,0.5,0.5l0,0l0.1,8.3
		c0,0.3-0.2,0.5-0.5,0.5c0,0,0,0,0,0H77.3c-0.3,0-0.5-0.2-0.5-0.5c0,0,0,0,0,0l0.1-8c0-0.3,0.2-0.5,0.5-0.5c0,0,0,0,0,0l79.4,0.1
		c0.3,0,0.5,0.2,0.5,0.5l0.7,7.3c0.1,0.3,0.3,0.5,0.6,0.4C159,595.6,159.2,595.4,159.2,595.2z" class="st125"></path>
	<path d="M254.7,587.2l0.3,9.6l-50.6,0c-0.4,0-0.6-0.2-0.6-0.6l0.5-8.7c0-0.4,0.3-0.7,0.7-0.7L254.7,587.2z" class="st124"></path>
	<path d="M255,596.8l-0.3-9.6l39.6-0.4c0.7,0,1.1,0.3,1.1,1l0.4,8.4c0,0.6-0.3,0.9-0.9,0.9L255,596.8z" class="st130"></path>
	<path d="M299.6,587.5l44-0.4c0.7,0,1.2,0.5,1.2,1.2l0.1,7.6c0,0.7-0.5,1.2-1.2,1.2c0,0,0,0,0,0l-44.7-0.1
		c-0.7,0-1.2-0.6-1.2-1.2c0,0,0-0.1,0-0.1l0.6-7.1C298.4,587.9,299,587.5,299.6,587.5z" class="st127"></path>
	<path d="M484,587.1l0.1,9.7l-50.9-0.1c-0.7,0-1-0.3-1-1l0.2-7.4c0-0.8,0.4-1.2,1.2-1.2H484z" class="st129"></path>
	<path d="M505.8,587.3l-0.5,9.2l-21.2,0.3l-0.1-9.7L505.8,587.3z" class="st125"></path>
	<path d="M533.7,587.2c-0.8,3.3-0.7,6.4,0.5,9.4l-28.8-0.2l0.5-9.2L533.7,587.2z" class="st120"></path>
	<path d="M600.6,587l-0.3,9.5l-21.7-0.3l-0.6-8.9L600.6,587z" class="st112"></path>
	<path d="M600.6,587c0.5-0.4,1.4-0.4,2.5-0.2l-0.5,8.9c-1.1,0-1.8,0.3-2.4,0.9L600.6,587z" class="st128"></path>
	<path d="M603.1,586.7l39.6,0.1l0.3,9.9l-39.1-0.1c-0.3,0-0.6-0.1-0.8-0.3c-0.7-0.4-0.8-0.7-0.4-0.8L603.1,586.7z" class="st112"></path>
	<path d="M642.7,586.9l40.9,0.3c0.4,0,0.6,0.2,0.6,0.6l0.4,7.9c0,0.4-0.3,0.7-0.7,0.8c0,0,0,0,0,0l-41,0.4
		L642.7,586.9z" class="st125"></path>
	<path d="M688.2,587.2l75.2-0.1c0.4,0,0.7,0.3,0.7,0.7c0,0,0,0,0,0.1l-0.8,7.9c0,0.3-0.3,0.6-0.7,0.6l-75.8-0.2
		c-0.4,0-0.7-0.3-0.7-0.7c0,0,0-0.1,0-0.1l1.4-7.7C687.6,587.5,687.8,587.2,688.2,587.2z" class="st125"></path>
	<path d="M813.6,588.3l-0.3,8l-45.3,0.1c-1.1,0-1.6-0.5-1.7-1.6l-0.4-6.3c-0.1-0.9,0.6-1.8,1.6-1.8c0.1,0,0.1,0,0.2,0
		c15.5,0.3,30.3,0.5,44.3,0.8C812.6,587.5,813.2,587.8,813.6,588.3z" class="st125"></path>
	<path d="M533.7,587.2c1.7,1,2.9,1.2,3.6,0.6c1.3,3.6,0.9,6.4-1.1,8.6c0.1-0.5-0.6-0.4-2,0.3
		C533,593.7,532.8,590.5,533.7,587.2z" class="st118"></path>
	<path d="M577.9,587.3l0.6,8.9l-42.4,0.2c2-2.2,2.4-5,1.1-8.6L577.9,587.3z" class="st127"></path>
	<path d="M256.6,601.6c-16.3,3.2-33.4,3.6-51.4,1.2c0.1,1.4-0.2,1.1-0.9-1c-0.3-1,0-1.5,1.1-1.6
		C222.3,599.7,239.3,600.2,256.6,601.6z" class="st120"></path>
	<path d="M484.8,601.3c-15.7,3.3-32.2,3.8-49.4,1.3c-0.4,1.6-1.4,1.4-2.9-0.5c-0.3-0.4-0.2-1,0.2-1.4
		c0.2-0.1,0.4-0.2,0.6-0.2L484.8,601.3z" class="st120"></path>
	<path d="M578.8,601.4c-13.5,2.4-27.3,2.8-41.4,1.3c-0.5-0.1-1-0.2-1.4-0.4c-1-0.5-1.9-0.3-2.6,0.8
		c-0.4,0.6-1,0.9-1.7,0.9l-23.7-0.1c-1.1,0.2-1.9-0.9-2.4-3.1c0.6-0.7,1.4-1.1,2.5-1C531.2,600.2,554.8,600.8,578.8,601.4z" class="st120"></path>
	<path d="M643,600.6l0.1,1.5c-0.4,0.8-0.6,1.3-0.5,1.4c0.8,1.1,1.9,1.8,3,1.8l177.7-0.1c2,0,3.7,1.5,4,3.6
		c0.3,2.4-1.4,3.7-4.9,3.7l-750.1,0.4c-1.4,0-2.5-1.1-2.5-2.5l-0.1-2.4c0-1.4,1.1-2.6,2.5-2.7c0,0,0.1,0,0.1,0l132.8,0
		c0.9,0,1.2-0.4,0.8-1.3c-0.1-0.3-0.3-0.6-0.6-1c17.9,2.4,35.1,2,51.4-1.2c13.3-1.8,27.1-1.8,41.4-0.1c15.7,2.9,31.7,3.1,48,0.6
		c-1.3,0-1.3,0.7-0.2,2c0.5,0.5,1,0.8,1.8,0.8l85.9,0.4c24.2,0,48.3,0,72.4,0c0.5,0,0.9-0.1,1.2-0.3c0.4-0.3,0.7-0.6,0.9-1l23.7,0.1
		c0.7,0,1.3-0.3,1.7-0.9c0.7-1.1,1.6-1.3,2.6-0.8c0.5,0.2,0.9,0.4,1.4,0.4c14.1,1.6,27.9,1.1,41.4-1.3c5-1.3,10.2-1.7,15.8-1.4
		c7.7,0.4,12.9,0.6,15.6,0.5C621.1,600,632,600,643,600.6z" class="st112"></path>
	<path d="M78.5,601.1l121.6-0.4c0.7,0,1.2,0.5,1.2,1.2l0,0.1c0,0.7-0.5,1.2-1.2,1.2l-121.6,0.4
		c-0.7,0-1.2-0.5-1.2-1.2l0-0.1C77.3,601.7,77.8,601.1,78.5,601.1z" class="st113"></path>
	<path d="M351.3,600.9l78.4-0.1c0.3,0,0.5,0.2,0.5,0.5l0,1.3c0,0.3-0.2,0.5-0.5,0.5l-78.4,0.1c-0.3,0-0.5-0.2-0.5-0.5
		l0-1.3C350.8,601.2,351,600.9,351.3,600.9z" class="st113"></path>
	<path d="M484.8,601.3c5.9-1.2,12.8-1.3,20.8-0.4c0.5,2.2,1.3,3.3,2.4,3.1c-0.2,0.4-0.5,0.8-0.9,1
		c-0.3,0.2-0.7,0.3-1.2,0.3c-24.1,0-48.2,0-72.4,0c1.8-0.6,2.4-1.5,1.9-2.7C452.6,605.1,469.1,604.6,484.8,601.3z" class="st131"></path>
	<path d="M810.4,600.7c3.9,0.8,2.7,1.6-3.7,2.4c-1.3,0.2-2.7,0.2-4.2,0.2c-52.1,0.4-104.2,0.4-156.3,0
		c-0.7,0-1.3-0.2-2-0.5l-1.1-0.6l-0.1-1.5L810.4,600.7z" class="st113"></path>
	<path d="M298,601.5c15.7-1.3,31.7-1.1,48,0.6C329.7,604.6,313.7,604.4,298,601.5z" class="st127"></path>
	<path d="M483.4,632.8c-1.5-0.6-1.9,1.8-1.4,7.2c-0.5-0.8-0.6-0.5-0.4,1.1c-1,1.2-1.9,1.8-2.8,1.8
		c-20.7-0.2-41.3-0.3-62-0.3c-1.1,0-2.5,0.4-4.2,1.2c-1.2-1.4-2.3-2.1-3-2.1c-14.7-0.3-29.4-0.1-44,0.6c-1.5,0.1-4.1,0-7.9-0.4
		c-2.7-0.2-5.3-0.1-8,0.3c-2.2-1.3-4-1.3-5.5,0.1l-168,0c0-0.5-0.8-0.8-2.2-0.8c-27.9,0-55.8,0-83.7,0c-7.8,0-12.6-2.6-17.2-8.3
		c-0.1-0.2-0.1-0.4,0-0.6c0.1-0.1,0.2-0.1,0.3-0.1L483.4,632.8z" class="st132"></path>
	<path d="M483.4,632.8l337.2,0c0.3,0,0.6,0.3,0.6,0.6c0,0.2-0.1,0.4-0.3,0.5c-15.1,10.2-31.8,7.7-49.6,7.5
		c-93.2-0.6-187-0.6-281.6,0c-3.2,0-5.8-0.5-7.8-1.5C481.4,634.6,481.9,632.2,483.4,632.8z" class="st129"></path>
	<path d="M482,640.1c1.9,1,4.5,1.5,7.8,1.5c94.6-0.6,188.4-0.6,281.6,0l-0.5,30.7c0,1.7-1.5,3.1-3.2,3c0,0,0,0,0,0
		c-78.4-2.4-156.7-2.3-235.1,0.5c-0.7,0-1,0.4-1,1l-0.5,18.3c-7.7,0.2-14.6,2.1-20.8,5.8c-0.6,0.4-1,0.9-1.3,1.6l-1.9,5.3l-4.2,0
		c-0.6,0-1.2-0.5-1.2-1.2c0-0.1,0-0.1,0-0.2l3.3-17.2c0.2-1.1-0.2-1.9-1.4-2.2l-0.5-0.2c-0.8-0.2-1.6,0.2-1.8,1c0,0.1,0,0.1,0,0.2
		l-1,5.9c-0.1,0.5-0.5,0.8-1,0.7c-0.2,0-0.3-0.1-0.5-0.2l-1.9-1.8c-0.6-0.5-1.2-0.6-1.8-0.1c-0.5,0.4-0.9,0.9-1.1,1.5
		c-4.1,1-8.3,0.6-12.5-1.5c-0.5-15.8-0.8-31.7-1-47.8c0-0.8,0.4-1.9,1.1-3.6C481.4,639.6,481.5,639.2,482,640.1z" class="st119"></path>
	<path d="M412.6,643.8l-0.3,49c-1.7-0.8-3-0.6-3.8,0.5c-0.2,0.3-0.4,0.6-0.7,0.8c-3.7,3.3-6.5,4.5-8.4,3.4l0.1-31.4
		c0-0.7-0.3-1-1-1l-19.2,0c-1.5,0-2.6,1.2-2.6,2.6c0,0,0,0,0,0l0,31.5l-10.9,0.5c-0.7,0-1.4,0.2-2,0.4c-2.2,0.7-4.3,0.6-6.3-0.3
		c-0.6-0.3-1.2-0.3-1.8,0c-2.4,0.9-4.4,0.7-6-0.7l0-56.7c2.7-0.4,5.4-0.5,8-0.3c3.8,0.3,6.4,0.4,7.9,0.4c14.6-0.7,29.3-0.8,44-0.6
		C410.3,641.8,411.4,642.5,412.6,643.8z" class="st122"></path>
	<path d="M481.7,641.1c-0.7,1.6-1.1,2.8-1.1,3.6c0.1,16.1,0.4,32.1,1,47.8l-0.2,18.3c-0.4,0.6-0.6,1.4-0.6,2.4
		c0,0.6-0.3,0.9-0.8,1l-17.9,2.2l0.1-35.1c0-0.6-0.3-0.9-0.9-0.9l-24.1,0.1c-0.5,0-1,0.4-1,1l0,0v19.8c-7-1.7-13.9-2.2-20.6-1.5
		c-0.3,0-0.4,0.2-0.4,0.4c0,0.2-0.1,0.4-0.4,0.5c-0.3,0.1-0.6,0.1-0.9,0c-0.6-0.3-1-0.8-1-1.3l-0.5-6.7l0.3-49
		c1.7-0.8,3.1-1.2,4.2-1.2c20.7,0,41.4,0.1,62,0.3C479.7,642.9,480.7,642.3,481.7,641.1z" class="st133"></path>
	<path d="M344.1,642.4l-0.3,52.5l-0.5,4.4c0,0.3-0.3,0.5-0.6,0.5c-0.2,0-0.4-0.1-0.4-0.3l-2.4-6
		c-0.2-0.6-0.7-0.9-1.3-0.9l-90.5-0.4c-0.5,0-0.9,0.2-1.2,0.5l-3.3,3.1l-0.4-27.1c0-0.7,0.3-1.1,1-1.1l68.8-0.2c1.3,0,2-0.6,2.3-1.9
		l0.2-0.7c0.1-0.6-0.3-1.1-0.8-1.3c-0.1,0-0.1,0-0.2,0L212,663.8c-1,0-1.5,0.5-1.5,1.5l-0.1,34.2c-0.8,0.2-2.2,0-4-0.6
		c-1.4-0.5-2.7-0.7-3.9-0.6c-8.5,0.3-17.2,0.6-26,0.8c-0.8,0-1.2-0.4-1.3-1.1l-0.7-12.5c-0.2-13.5-0.1-27,0.3-40.5
		c0-0.5,0.1-1,0.4-1.4c0.2-0.3,0.5-0.7,0.8-1.2L344.1,642.4z" class="st119"></path>
	<path d="M924.7,722.8c-2.9-1.1-6.9-1.4-11.9-0.7l1.1-57.6c0.1-6.4,3.3-9.1,9.7-8.3l1.1,0.1c6.3,0.8,9,4.4,8.1,10.7
		L924.7,722.8z" class="st111"></path>
	<path d="M243.7,695.7l-1,29c0,0.8-0.7,1.4-1.4,1.4l-25.9-0.1c-2.9,0-4.4-1.5-4.5-4.4l-0.3-21.9l0.1-34.2
		c0-1,0.5-1.5,1.5-1.5l102.5-0.4c0.6,0,1.1,0.5,1.1,1.1c0,0.1,0,0.1,0,0.2l-0.2,0.7c-0.2,1.2-1,1.9-2.3,1.9l-68.8,0.2
		c-0.7,0-1.1,0.4-1,1.1L243.7,695.7z M215.1,720c0,0.9,0.7,1.6,1.6,1.6c0,0,0,0,0,0l20-0.4c0.9,0,1.6-0.7,1.6-1.6l0.9-49.3
		c0-0.9-0.7-1.7-1.6-1.7c0,0,0,0-0.1,0l-21.1,0.1c-0.9,0-1.6,0.7-1.6,1.6l0,0L215.1,720z" class="st117"></path>
	<path d="M399.5,697.5c0.3,0.6,0.3,1.2,0,1.8c-0.2,0.5-0.8,0.8-1.4,0.8l-21.4-1l0-31.5c0-1.5,1.2-2.6,2.6-2.6h0
		l19.2,0c0.7,0,1,0.3,1,1L399.5,697.5z M394.8,671.3c0-0.9-0.7-1.6-1.6-1.6l-9.9-0.2c-0.9,0-1.6,0.7-1.6,1.6l-0.4,21.8
		c0,0.9,0.7,1.6,1.6,1.6l9.9,0.2c0.9,0,1.6-0.7,1.6-1.6L394.8,671.3z" class="st117"></path>
	<path d="M110.3,718.5l-2.6,7.2c-0.3,0.8-1.1,1.1-1.9,0.9c0,0,0,0,0,0c-2.8-1.2-5.4-1.2-7.9-0.1l-5.5-54
		c-0.4-3.9,1.4-6,5.3-6.2l4.9-0.2c3.8-0.2,5.8,1.6,5.9,5.4L110.3,718.5z" class="st111"></path>
	<path d="M896.5,667c3.4,0,6.2,1,8.5,2.9c0.5,0.5,0.9,1.1,0.9,1.8l3,44.9c-10-5.3-16.1-12.2-18.3-20.7
		c1.6-9.4,2-18.3,1.3-26.6C892.9,668.2,894.5,667.4,896.5,667z" class="st114"></path>
	<path d="M215.1,720l-0.2-49.6c0-0.9,0.7-1.6,1.6-1.6h0l21.1-0.1c0.9,0,1.7,0.7,1.7,1.6c0,0,0,0,0,0.1l-0.9,49.3
		c0,0.9-0.7,1.6-1.6,1.6l-20,0.4C215.9,721.6,215.1,720.9,215.1,720C215.1,720,215.1,720,215.1,720z" class="st120"></path>
	<path d="M383.3,669.5l9.9,0.2c0.9,0,1.6,0.7,1.6,1.6l-0.4,21.8c0,0.9-0.7,1.6-1.6,1.6l-9.9-0.2
		c-0.9,0-1.6-0.7-1.6-1.6l0.4-21.8C381.7,670.2,382.4,669.5,383.3,669.5z" class="st118"></path>
	<path d="M891.9,669.4c0.7,8.3,0.3,17.2-1.3,26.6l-1.7,12.2c-3.6-11.3-5-23-4.2-34.9c0.1-0.7,0.3-1.3,0.9-1.9
		C887.2,669.8,889.3,669.1,891.9,669.4z" class="st133"></path>
	<path d="M936.4,726.1l-9.1-4.1c2.1-12.4,5.5-27.3,10.1-44.7c1.9-7.1,7.4-8.4,13.1-4.5c7.1,4.9,4.7,11.6,1.4,18.6
		C946.4,703,941.3,714.5,936.4,726.1z" class="st111"></path>
	<path d="M129.9,715.8c-4.5,1.9-9.3,2.1-14.4,0.7l1.2-31.2c0.2-5.6,3.1-8.2,8.7-7.7l1,0.1c5.7,0.5,8.2,3.6,7.4,9.2
		L129.9,715.8z" class="st114"></path>
	<path d="M590.1,679.9H663c0.8,0,1.4,0.6,1.4,1.4v45.3c0,0.8-0.6,1.4-1.4,1.4h-72.9c-0.8,0-1.4-0.6-1.4-1.4v-45.3
		C588.6,680.5,589.3,679.9,590.1,679.9z" class="st120"></path>
	<path d="M668.7,679.8h61.5c0.6,0,1.1,0.5,1.1,1.1v45.9c0,0.6-0.5,1.1-1.1,1.1h-61.5c-0.6,0-1.1-0.5-1.1-1.1V681
		C667.6,680.3,668.1,679.8,668.7,679.8z" class="st120"></path>
	<path d="M462,716.4l-0.5,30c0,0.5-0.4,0.9-1,0.9c0,0,0,0,0,0l-23-0.4c-0.7,0-1.2-0.6-1.3-1.3l-0.3-44.3v-19.8
		c0-0.5,0.4-1,1-1l0,0l24.1-0.1c0.6,0,0.9,0.3,0.9,0.9L462,716.4z M442,715.5l0.1,25c0,0.6,0.5,1.1,1.1,1.1l11.7,0
		c0.6,0,1.2-0.5,1.2-1.2l0,0l0.3-23.4l0.7-29.2c0-1.2-0.6-1.8-1.8-1.8l-11.9-0.2c-1,0-1.8,0.8-1.9,1.8c0,0,0,0,0,0.1L442,715.5z" class="st117"></path>
	<path d="M739,681.3l43.2-0.2c1.5,0,2.7,1.2,2.7,2.7l0.2,36.4c0,1.5-1.2,2.7-2.7,2.7l-43.2,0.2
		c-1.5,0-2.7-1.2-2.7-2.7l-0.2-36.4C736.3,682.5,737.5,681.3,739,681.3z" class="st111"></path>
	<path d="M539,681.4l43,0.1c0.9,0,1.6,0.7,1.6,1.7l-0.1,38.2c0,0.9-0.7,1.6-1.7,1.6l-43-0.1c-0.9,0-1.6-0.7-1.6-1.7
		l0.1-38.2C537.4,682.1,538.1,681.4,539,681.4z" class="st112"></path>
	<path d="M97.8,726.4c2.5-1.1,5.1-1.1,7.9,0.1c0.7,0.3,1.6,0,1.9-0.8c0,0,0,0,0,0l2.6-7.2l2.4,25.2
		c0,0.1,0.1,0.2,0.2,0.2l0.6,0c0.4,0,0.6-0.2,0.6-0.5l1.3-26.9c5.2,1.5,10,1.2,14.4-0.7l-4.6,25.8c-0.5,2.7-0.2,2.8,0.9,0.3
		c1.7-3.9,3.2-8.8,4.4-14.5c2.3-11,5.7-22.1,10-33.4c1.4-3.7,3.8-4.6,7.4-2.9l0.7,0.3c3.6,1.8,4.6,4.6,2.9,8.3l-24.6,52
		c-0.1,0.3-0.1,0.5,0.2,0.7l0.6,0.3c0.5,0.2,0.8,0.1,1.1-0.4c3.2-6.4,7-12.3,11.3-18c2.4-3.2,5.3-3.6,8.6-1.3l1,0.7
		c3.4,2.4,3.9,5.3,1.4,8.6l-17.2,23c-0.2,0.2-0.1,0.4,0,0.6l0.4,0.4c0.2,0.2,0.3,0.2,0.5,0l18.1-17.6c2.2-2.1,5.7-2.1,7.8,0.1
		c0.2,0.2,0.4,0.5,0.6,0.7l0.4,0.6c2.5,3.7,2.1,7-1.3,9.9c-8.4,7.1-16.7,14.5-24.8,22.3c-2,1.9-4.5,2.5-7,3.6
		c-11.9-1.1-23.9-1.2-35.9-0.1c-2.1-0.9-4.1-1.9-5.9-2.8c-1.8-0.9-3.6-2.1-5.5-3.6c-12.1-9.3-23.7-18.2-34.9-26.8
		c-3.8-2.9-4.2-6.3-1.3-10l1.3-1.7c3.2-4.1,6.6-4.3,10.3-0.8L90.9,773c0.2,0.2,0.6,0.2,0.8,0c0.2-0.2,0.2-0.5,0.1-0.7l-21.7-34.5
		c4.3-2.4,8-5.7,11.2-10l5.1,10.7c2.9,6.1,3.6,5.9,2.1-0.7l-12.3-52c-0.1-0.5,0.2-1,0.7-1.1c0.3-0.1,0.6,0,0.8,0.2
		c1.2,1.2,2.3,3.1,3.4,5.6c7,16.2,12.9,33.1,17.6,50.8c0.1,0.3,0.4,0.5,0.7,0.5s0.5-0.4,0.5-0.7l0,0L97.8,726.4z" class="st113"></path>
	<path d="M174.6,685.4l0.7,12.5c0,0.8,0.5,1.2,1.3,1.1c8.8-0.2,17.5-0.5,26-0.8c1.2,0,2.5,0.2,3.9,0.6
		c1.8,0.6,3.1,0.8,4,0.6l0.3,21.9c0,2.9,1.5,4.4,4.5,4.4l25.9,0.1c0.8,0,1.4-0.6,1.4-1.4l1-29l3.3-3.1c0.3-0.3,0.8-0.5,1.2-0.5
		l90.5,0.4c0.6,0,1,0.3,1.3,0.9l2.4,6c0.1,0.3,0.4,0.4,0.7,0.3c0.2-0.1,0.3-0.2,0.3-0.4l0.5-4.4c0.8,28.4,0.8,52.6,0.1,72.4
		c-0.1,3.1-2.4,3.8-6.9,2c2-2,2.3-3.7,1-5.1c-0.8-0.9-2.2-1-3.1-0.2c-0.2,0.1-0.3,0.3-0.4,0.5l-6,10c-0.3,0.4-0.8,0.6-1.3,0.3
		c-0.3-0.2-0.5-0.6-0.4-1l6.5-23.7c0.1-0.5-0.2-1-0.7-1.1c0,0-0.1,0-0.1,0l-0.9-0.1c-1.4-0.2-2.3,0.4-2.8,1.8l-4.9,15.8
		c-0.1,0.2-0.2,0.3-0.5,0.3l-0.5-0.1c-0.5-0.1-0.8-0.5-0.7-1l2.3-22.8c0.2-1.6-0.8-3.1-2.3-3.6l-0.5-0.2c-1.6-0.6-2.5-0.1-2.6,1.7
		l-0.8,18.7c-0.4,10.3-1.5,10.4-3.2,0.2c-0.8-4.6-1.4-9.3-1.9-14c-0.2-1.8-1.8-3.1-3.5-3l-0.9,0.1c-1.2,0.1-2.1,1.1-2,2.3
		c0,0.1,0,0.2,0,0.3l5.9,29.6c0.1,0.4-0.2,0.8-0.6,0.9c0,0,0,0,0,0l-0.6,0.1c-0.2,0-0.4,0-0.5-0.2l-6.9-13.1c-0.9-1.7-2-1.9-3.5-0.7
		l-0.5,0.4c-0.8,0.6-1,1.7-0.5,2.6l9.9,18.7c-4.9,1.1-9.7,1-14.3-0.1c-0.7-0.2-1.1-0.8-1.1-1.4c-0.1-6.7-1.3-13.2-3.6-19.5
		l-0.6-26.2c0-0.6-0.5-1.1-1.1-1.1c0,0,0,0,0,0c-10.5,0.4-20.3,0.3-29.3-0.1c-1.5-0.1-2.5,0.1-3.2,0.6c-1.2,0.8-1.4,1.9-0.8,3.5
		c0.2,0.6,0.3,1.3,0,1.9c-1.3,4.1-1.8,8.4-1.3,12.8c0.8,7,1.5,13.9,2.2,20.8c-1.8-1-2-1.9-0.8-2.8c-9.8,2.5-18.4,6.5-25.7,11.8
		c-0.2,0.1-0.3,0.2-0.5,0.2c-0.2,0-0.4-0.1-0.6-0.4c-0.2-0.3-0.2-0.6,0.1-0.8l15.8-15.6c0.4-0.4,0.4-1.1,0-1.5
		c-0.1-0.1-0.2-0.2-0.3-0.2l-0.8-0.3c-1.1-0.5-2.4-0.3-3.3,0.5l-11.4,10.7c-0.4,0.4-1.1,0.5-1.5,0.1l-0.6-0.4
		c-0.3-0.2-0.3-0.4-0.1-0.7l9.1-13c0.8-1.2,0.6-2.1-0.6-2.8l-0.9-0.5c-0.9-0.6-2.1-0.3-2.8,0.5l-9.4,12.3c-0.4,0.5-0.8,0.5-1.2,0
		c-0.9-1.1-1.1-2.3-0.5-3.5c1.6-3,3-6.4,4.1-10.1c0.2-0.7,0-1.5-0.6-2l-0.8-0.6c-1-0.7-2.4-0.5-3.1,0.5c-0.2,0.2-0.3,0.4-0.3,0.7
		l-4,13.5c-0.1,0.3-0.4,0.5-0.7,0.4c-0.1,0-0.2-0.1-0.3-0.2l-0.7-0.7c-0.5-0.6-0.8-1.4-0.8-2.1l0.9-14.9c0.1-1.2-0.9-2.3-2.1-2.4
		c-0.1,0-0.2,0-0.3,0l-1,0.1c-1,0.1-1.7,0.9-1.8,1.9l-0.7,16.6c0,0.6-0.4,1.1-1,1.1c-0.5,0-0.9-0.3-1-0.8l-3.9-14.7
		c-0.2-0.9-1.2-1.5-2.1-1.3c-0.2,0-0.3,0.1-0.5,0.2l-0.5,0.3c-1.3,0.8-1.7,1.9-1.3,3.3l4,15.4c0.2,0.6-0.1,1.2-0.7,1.4
		c-0.5,0.2-1-0.1-1.3-0.5l-7.5-13c-0.6-1.1-1.9-1.7-3.3-1.5l-0.7,0.1c-0.6,0.1-1,0.7-0.9,1.2c0,0.1,0.1,0.2,0.1,0.3l7.1,13.9
		c0.2,0.4,0,0.8-0.3,1c-0.3,0.1-0.6,0.1-0.9-0.1l-13.8-11.9c-0.7-0.7-1.9-0.7-2.5,0.1c-0.7,0.7-0.7,1.8,0.1,2.5l0,0l14.2,15.1
		c0.2,0.2,0.2,0.6,0,0.8c-0.2,0.2-0.4,0.2-0.6,0.1l-16.5-8.9c1.8-1.3,2.1-3.8,1-7.5c-0.8-2.8-1.3-5.2-1.3-7
		C174.4,734.4,174.5,709.9,174.6,685.4z" class="st125"></path>
	<path d="M456.3,717c-4.8-2.2-9.5-2.7-14.3-1.5l-0.5-27.9c0-1,0.8-1.8,1.8-1.8c0,0,0,0,0.1,0l11.9,0.2
		c1.2,0,1.8,0.6,1.8,1.8L456.3,717z" class="st115"></path>
	<path d="M507.2,707.8c0.1,5.7-4.8,9.5-9.7,7.4c-0.7-0.3-1-1-0.8-1.7c2.1-6.4,1.2-12.9-2.7-19.4
		c0.3-0.7,0.7-1.2,1.1-1.5c0.6-0.5,1.2-0.5,1.8,0.1l1.9,1.8c0.3,0.3,0.9,0.3,1.2,0c0.1-0.1,0.2-0.3,0.2-0.5l1-5.9
		c0.1-0.8,0.9-1.3,1.7-1.2c0.1,0,0.1,0,0.2,0l0.5,0.2c1.1,0.3,1.6,1.1,1.4,2.2l-3.3,17.2c-0.1,0.6,0.3,1.2,0.9,1.4
		c0.1,0,0.1,0,0.2,0L507.2,707.8z" class="st126"></path>
	<path d="M412.3,692.8l0.5,6.7c-1.2,24.2-1.2,40.3-0.1,48.1c1.2,8.8,0.8,16.2-1.3,22l-60.8-0.2
		c-0.8,0-1.1-0.4-1.1-1.2l0.1-69.3c1.6,1.4,3.6,1.6,6,0.7c0.6-0.2,1.2-0.2,1.8,0c2,0.9,4.1,1,6.3,0.3c0.7-0.2,1.3-0.3,2-0.4
		l10.9-0.5l21.4,1c0.6,0,1.1-0.3,1.4-0.8c0.3-0.7,0.3-1.3,0-1.8c1.9,1.1,4.6,0,8.4-3.4c0.3-0.2,0.5-0.5,0.7-0.8
		C409.3,692.2,410.6,692,412.3,692.8z M408.2,723.3c0-1.6-1.3-2.8-2.8-2.8h0c-1.6,0-2.8,1.3-2.8,2.8c0,0,0,0,0,0
		c0,1.6,1.3,2.8,2.8,2.8C406.9,726.1,408.2,724.9,408.2,723.3z" class="st112"></path>
	<path d="M481.5,692.5c4.2,2,8.4,2.5,12.5,1.5c3.9,6.5,4.8,13,2.7,19.4c-0.2,0.7,0.1,1.5,0.8,1.7
		c5,2.1,9.8-1.7,9.7-7.4l1.9-5.3c0.2-0.7,0.7-1.2,1.3-1.6c6.2-3.7,13.1-5.6,20.8-5.8l0.8,29.4c0.1,3,1.6,4.4,4.7,4.1
		c13-1.2,26.8-1.4,41.6-0.5c2.6,0.2,6.1,0.9,10.7,2.4c3.8,1.2,7.3,1.8,10.7,1.9c20.3,0.4,40.5,0.4,60.8,0c0.5,0,1-0.2,1.3-0.5
		l1.7-1.6c0.3-0.3,0.7-0.3,1,0c0.1,0.1,0.1,0.2,0.2,0.3l0.3,1.2c0.2,0.6,0.6,1,1.3,0.9c15.5-0.2,30.9-0.3,46.4-0.3
		c9.1,0,16.8-1.1,23.3-3.3c3.3-1.1,6.2-1.6,8.8-1.5c10,0.3,19.9,0.5,29.8,0.6c1.3,0.2,2.1,0.9,2.3,2c0.2,0.7,0,1.3-0.5,1.9
		c-2.5,2.5-3.4,5.3-2.7,8.2l-269.9-0.2c-1.4,0-2.5,1.1-2.5,2.5c0,0.1,0,0.2,0,0.3c0.8,7.6,0.4,15-1.2,22.2
		c-1.9,2.5-2.3,7.6-1.4,15.4c-3-5.3-5.8-8.6-8.5-10c-2.3-2.7-5.1-3.1-8.6-1.1l0-58.5L481.5,692.5z" class="st131"></path>
	<path d="M882.8,700.3l8.8,28.5l2.5,8.3c0.1,0.3,0.4,0.4,0.7,0.4c0.3-0.1,0.4-0.4,0.4-0.7l-2.2-8.3l-4-20.4l1.7-12.2
		c2.2,8.5,8.3,15.3,18.3,20.7l1.4,23.2c0,0.3,0.2,0.5,0.6,0.5l0.8,0c0.3,0,0.5-0.2,0.5-0.5l0.6-17.6c5-0.7,9-0.4,11.9,0.7
		c-0.8,4.7-1.1,8.9-0.9,12.5c0.1,1.8,0.5,1.9,1.1,0.1c1.3-4,2.1-8.4,2.4-13.4l9.1,4.1l-5.2,10.5c-0.5,0.4-0.8,0.9-1,1.5
		c-0.1,0.4,0,0.7,0.2,1l2.6,2.9c0.4,0.4,0.8,0.5,1.3,0.4c1.1-0.3,1.7-1.1,1.9-2.3c0.1-0.7,0.5-1.4,1.1-1.9c2-1.6,4.1-1.3,6.2,0.9
		l-11.2,15.8c-0.1,0.2-0.1,0.3,0.1,0.5l0.4,0.3c0.3,0.2,0.5,0.2,0.8-0.1c9.7-11.8,19.5-23.3,29.5-34.7c4-4.6,9.2-10.4,16.1-6.2
		c14.3,8.6,7.6,18.3-1.4,27.3c-8.8,8.9-17.9,17.5-27.2,25.8c-0.8,0.7-1.3,1.5-1.7,2.4c-0.3,0.7-0.1,0.9,0.5,0.4l25.1-17.6
		c4.4-3.1,7.8-2.2,10.1,2.7l0.5,1c2.3,5,1.1,8.8-3.6,11.6c-9.5,5.4-18.7,10.7-27.4,15.9c-2.5,1.5-2.5,2.4-0.1,2.7l-78-0.5l8.9-0.3
		c1.2,0,1.3-0.4,0.3-1l-42.6-28.5c-4.2-2.8-5-6.4-2.5-10.7l0.9-1.6c2.5-4.3,5.6-4.8,9.3-1.4l27.3,24.7c0.2,0.2,0.6,0.2,0.8,0
		c0,0,0,0,0,0l0.4-0.5c0.1-0.1,0.1-0.2-0.1-0.4L846.8,725c-4-5.2-3.5-9.9,1.4-14.2l0.9-0.8c5.3-4.6,9.8-4,13.6,1.9
		c6.5,10,12.6,20.2,18.2,30.8c0,0,0,0,0,0l0.5-0.3c0.1-0.1,0.2-0.2,0.1-0.4l-16.7-39.8c-0.3-0.8-0.3-1.6,0.2-2.3
		c2.7-4.1,6.6-5.6,11.5-4.5c0.8,0.2,1.4,0.6,1.8,1.3C879.8,699.6,881.3,700.8,882.8,700.3z" class="st113"></path>
	<path d="M943.6,739.1c-2.1-2.1-4.1-2.4-6.2-0.9c-0.6,0.5-1,1.1-1.1,1.9c-0.2,1.2-0.8,2-1.9,2.3c-0.5,0.2-1,0-1.3-0.4
		l-2.6-2.9c-0.3-0.3-0.3-0.6-0.2-1c0.2-0.6,0.5-1.1,1-1.5c6.3-0.7,15.5-37.3,27.6-41c0.6-0.2,1.3-0.2,1.9,0.1
		c9.4,3.6,8.2,10.6,2.9,17.4C956.8,721.8,950.1,730.4,943.6,739.1z" class="st111"></path>
	<path d="M81.3,727.8c-3.2,4.3-6.9,7.6-11.2,10l-17.8-27.3c-3-4.6-2.2-8.4,2.5-11.4l1.9-1.2c4.6-2.9,8.2-1.9,10.7,2.9
		L81.3,727.8z" class="st114"></path>
	<path d="M436.1,701.4l0.3,44.3c0,0.7,0.6,1.2,1.3,1.3l23,0.4c0.5,0,0.9-0.4,1-0.9c0,0,0,0,0,0l0.5-30l17.9-2.2
		c0.6-0.1,0.8-0.4,0.8-1c0-1,0.2-1.8,0.6-2.4l0,58.5l-69.8,0.2c2.1-5.8,2.5-13.1,1.3-22c-1.1-7.9-1.1-23.9,0.1-48.1
		c0,0.5,0.3,1,1,1.3c0.3,0.2,0.6,0.2,0.9,0c0.2-0.1,0.4-0.3,0.4-0.5c0-0.3,0.2-0.4,0.4-0.4C422.3,699.1,429.1,699.6,436.1,701.4z" class="st134"></path>
	<path d="M456.3,717l-0.3,23.4c0,0.6-0.5,1.2-1.2,1.2c0,0,0,0,0,0l-11.7,0c-0.6,0-1.1-0.5-1.1-1.1l-0.1-25
		C446.8,714.3,451.6,714.8,456.3,717z" class="st111"></path>
	<circle r="2.8" cy="723.3" cx="405.4" class="st127"></circle>
	<path d="M891.5,728.8c0.7,0.2,1.1,0.1,1.4-0.3l2.2,8.3c0.1,0.3-0.1,0.6-0.4,0.7c-0.3,0.1-0.6-0.1-0.7-0.4
		L891.5,728.8z" class="st119"></path>
	<path d="M290.8,762.7l0.9,19.9c0,1-0.7,1.8-1.6,1.8c0,0-0.1,0-0.1,0l-33.6,0c-4.9,0-5.6-1.4-2.2-4.1
		c0.8-0.7,1.7-2.4,2.6-5.3c-0.7-6.8-1.4-13.7-2.2-20.8c-0.5-4.4-0.1-8.7,1.3-12.8c0.2-0.7,0.2-1.3,0-1.9c-0.6-1.6-0.3-2.8,0.8-3.5
		c0.7-0.4,1.7-0.6,3.2-0.6c9,0.4,18.8,0.4,29.3,0.1c0.6,0,1.1,0.4,1.1,1c0,0,0,0,0,0L290.8,762.7z" class="st112"></path>
	<path d="M806.6,737.7l-0.5,18.7c0.1,0.7-0.5,1.4-1.3,1.4c-0.7,0.1-1.4-0.5-1.4-1.3l-1.9-11.7c-0.2-1.4-1.6-2.4-3-2.2
		l-1.1,0.2c-1.6,0.3-2.7,1.8-2.5,3.4c0,0.1,0.1,0.3,0.1,0.4c2.2,7.2,4.1,14.4,5.7,21.8c0.7,3.1,0.1,3.3-1.7,0.7l-5.2-7.8
		c-0.8-1.2-2.3-1.7-3.6-1.2l-0.8,0.3c-0.6,0.2-1,0.9-0.8,1.6c0,0.1,0.1,0.1,0.1,0.2l13.7,24c-91.6-0.1-183.3,0-275.1,0.1
		c-7.9,0-14.2,0.4-18.8,1.2c-0.7,0.1-0.9-0.1-0.4-0.7l6.4-8.3c3.1,1.5,6.7,2.2,10.8,2.2c54.1-0.8,112.5,0.1,170.4-0.4
		c31.5-0.3,63.2-0.3,95-0.1c3.3,0,4.2-1.4,2.8-4.4l-0.7-1.5c-1.5-3.2-4-4.8-7.5-4.8c-79.1,0.9-166.6,0.9-262.7,0.1
		c-2.5,0-4.5,0.7-6,2.2c-2.4,0.9-4.6,3.3-6.5,7.2c-1.9-1.3-1.7-4.1,0.6-8.4c0.6-1.2,0.2-2.6-1-3.3c-1.1-0.6-2.5-0.2-3.1,0.8
		c-0.5,0.8-0.8,1.6-0.9,2.5c-0.1,0.7-0.7,1.1-1.3,1.1c-0.4,0-0.7-0.3-0.9-0.6l-3.6-6.3c1.6-7.2,2-14.6,1.2-22.2
		c-0.1-1.4,0.8-2.6,2.2-2.8c0.1,0,0.2,0,0.3,0l269.9,0.2c6.8-0.3,13.6-0.7,20.3-1.1c0.9-0.1,2.3,0.1,4.1,0.5
		c1.8,0.4,3.2,0.1,4.3-0.8C804.9,736.4,806.4,736,806.6,737.7z M776.6,749.9c2.7-0.7,5.4-0.9,8.2-0.6c1.4,0.2,2.7-0.3,3.7-1.4
		l1.4-1.5c1.1-1.2,0.8-1.9-0.8-1.9l-282.2,0c-1.6,0-2.3,0.8-2.3,2.3l0,1c0.1,1.5,0.8,2.2,2.3,2.2l264,0.5
		C772.8,750.6,774.7,750.4,776.6,749.9z M509.7,755c-0.7-0.5-1.4-0.7-2.1-0.6c-1,0.1-1.7,0.8-1.8,1.8l-0.3,5.3c0,0.9,0.4,1.2,1.2,1
		c1.4-0.4,2.5-0.6,3.4-0.5c19.4,1.2,38.9,1.7,58.4,1.6c68.7-0.4,137.4-0.4,206.1,0.1c5.1,0,8.9,0.7,10.1-5.5c0.1-0.7,0.6-1,1.3-1
		l0.8,0.1c0.7,0.1,1-0.2,0.8-0.9c-0.2-0.9-1-1.3-2.3-1.3c-71.9,0.3-162.3,0.3-271.3-0.2c-1,0-1.8,0.3-2.8,0.6
		C510.7,755.4,510.2,755.3,509.7,755z" class="st117"></path>
	<path d="M876.1,786.2l78,0.5c12-1.3,24-0.4,36,2.9c1.9,0.5,1.9,1.1,0,1.8c-1.1,0.4-2.8,0.2-5.2-0.5l-183,0
		c1.8-0.8,2.9-1.5,3.2-2.4c0.2-0.6,0-0.9-0.6-0.9c-0.8,0-1.5-0.4-2-1.1l-13.7-24c-0.3-0.6-0.1-1.3,0.5-1.7c0.1,0,0.1-0.1,0.2-0.1
		l0.8-0.3c1.3-0.5,2.8,0,3.6,1.2l5.2,7.8c1.8,2.6,2.3,2.4,1.7-0.7c-1.6-7.4-3.5-14.6-5.7-21.8c-0.5-1.6,0.4-3.3,1.9-3.8
		c0.1,0,0.3-0.1,0.4-0.1l1.1-0.2c1.4-0.2,2.8,0.7,3,2.2l1.9,11.7c0.1,0.7,0.7,1.3,1.4,1.3c0.7-0.1,1.3-0.7,1.3-1.4l0.5-18.7
		c3.7-0.6,5.5,2,5.1,5.6c-0.6,5.3-0.7,10.8-0.2,16.4c0.1,1.7,0.5,1.7,1,0.1c1.4-3.9,2.4-8,3-12.1c0.2-1.5,1.1-2.2,2.6-2l0.5,0.1
		c1.6,0.2,2.2,1.1,1.8,2.6l-4.8,21.2c-0.4,1.8,0,2,1.1,0.6c2.4-2.9,3.8-8.1,6.8-10.1c1.1-0.7,2.6-0.4,3.3,0.7
		c0.6,0.8,0.5,1.9-0.1,2.7c-4.9,6.6-8.5,13.9-10.8,21.9c-0.2,0.6,0.1,0.9,0.7,0.9L876.1,786.2z" class="st120"></path>
	<path d="M337.1,769.2c-0.9,0.4-1.8,1.5-2.5,3.1c-2.6,0.9-4.9,3.6-6.9,8.3c-1.8,6.4-4.5,10.1-8.3,11.2l-6.4-3.4
		l-3.2-4.8l-9.9-18.7c-0.5-0.9-0.2-2,0.5-2.6l0.5-0.4c1.5-1.2,2.6-0.9,3.5,0.7l6.9,13.1c0.1,0.2,0.3,0.3,0.5,0.2l0.6-0.1
		c0.4-0.1,0.7-0.5,0.6-0.9c0,0,0,0,0,0l-5.9-29.6c-0.2-1.2,0.5-2.3,1.7-2.6c0.1,0,0.2,0,0.3,0l0.9-0.1c1.8-0.1,3.3,1.2,3.5,3
		c0.5,4.7,1.1,9.4,1.9,14c1.7,10.2,2.8,10.1,3.2-0.2l0.8-18.7c0.1-1.8,0.9-2.3,2.6-1.7l0.5,0.2c1.5,0.6,2.4,2.1,2.3,3.6l-2.3,22.8
		c-0.1,0.5,0.3,0.9,0.7,1l0.5,0.1c0.3,0.1,0.4,0,0.5-0.3l4.9-15.8c0.4-1.4,1.4-2,2.8-1.8l0.9,0.1c0.5,0.1,0.9,0.5,0.8,1.1
		c0,0,0,0.1,0,0.1l-6.5,23.7c-0.1,0.5,0.2,1,0.7,1.1c0.4,0.1,0.8-0.1,1-0.4l6-10c0.6-1,2-1.4,3-0.7c0.2,0.1,0.4,0.3,0.5,0.4
		C339.4,765.5,339,767.2,337.1,769.2z" class="st120"></path>
	<path d="M776.6,749.9c-1.9,0.5-3.8,0.8-5.7,0.8l-264-0.5c-1.5,0-2.2-0.7-2.3-2.2l0-1c-0.1-1.6,0.7-2.3,2.3-2.3
		l282.2,0c1.7,0,1.9,0.6,0.8,1.9l-1.4,1.5c-0.9,1-2.3,1.5-3.7,1.4C782,749,779.3,749.2,776.6,749.9z" class="st131"></path>
	<path d="M255.9,772.2c-7.2,7.3-15,12.4-23.6,15.2l-4,0.2c-11.1-0.5-22-0.6-32.7-0.4c-3.5,0.1-6.8-0.6-9.7-2
		c-5.9-2.8-11.6-6-17-9.7c-0.6-0.4-1-1.2-0.9-1.9c0.2-2.7,2.4-2.8,6.5-0.1l16.5,8.9c0.3,0.1,0.6,0,0.7-0.2c0.1-0.2,0.1-0.5-0.1-0.6
		l-14.2-15.1c-0.7-0.7-0.7-1.8-0.1-2.5c0.7-0.7,1.8-0.7,2.5-0.1l13.8,11.9c0.3,0.3,0.8,0.2,1.1-0.1c0.2-0.2,0.2-0.6,0.1-0.9
		l-7.1-13.9c-0.3-0.5-0.1-1.2,0.4-1.4c0.1-0.1,0.2-0.1,0.3-0.1l0.7-0.1c1.3-0.2,2.6,0.4,3.3,1.5l7.5,13c0.3,0.5,0.9,0.7,1.5,0.5
		c0.5-0.2,0.7-0.8,0.5-1.3l-4-15.4c-0.4-1.4,0.1-2.5,1.3-3.3l0.5-0.3c0.8-0.5,1.9-0.3,2.4,0.5c0.1,0.2,0.2,0.3,0.2,0.5l3.9,14.7
		c0.1,0.6,0.7,0.9,1.2,0.8c0.5-0.1,0.8-0.5,0.8-1l0.7-16.6c0-1,0.8-1.8,1.8-1.9l1-0.1c1.2-0.1,2.3,0.8,2.5,2c0,0.1,0,0.2,0,0.3
		l-0.9,14.9c-0.1,0.8,0.2,1.6,0.8,2.1l0.7,0.7c0.2,0.2,0.6,0.3,0.8,0c0.1-0.1,0.1-0.2,0.2-0.3l4-13.5c0.4-1.2,1.6-1.9,2.8-1.5
		c0.2,0.1,0.5,0.2,0.7,0.3l0.8,0.6c0.6,0.4,0.9,1.2,0.6,2c-1.2,3.7-2.5,7.1-4.1,10.1c-0.6,1.2-0.5,2.3,0.5,3.5
		c0.4,0.5,0.8,0.5,1.2,0l9.4-12.3c0.6-0.9,1.8-1.1,2.8-0.5l0.9,0.5c1.2,0.7,1.4,1.7,0.6,2.8l-9.1,13c-0.2,0.3-0.2,0.5,0.1,0.7
		l0.6,0.4c0.5,0.3,1.1,0.3,1.5-0.1l11.4-10.7c0.9-0.8,2.2-1,3.3-0.5l0.8,0.3c0.5,0.3,0.8,0.9,0.5,1.4c-0.1,0.1-0.1,0.2-0.2,0.3
		L229.2,783c-0.3,0.3-0.3,0.5-0.1,0.8c0.2,0.2,0.4,0.3,0.6,0.4c0.2,0,0.3,0,0.5-0.2C237.5,778.6,246.1,774.7,255.9,772.2z" class="st126"></path>
	<path d="M511.3,755.3c1-0.3,1.8-0.6,2.8-0.6c109,0.4,199.4,0.5,271.3,0.2c1.3,0,2.1,0.4,2.3,1.3
		c0.2,0.7-0.1,1-0.8,0.9l-0.8-0.1c-0.7-0.1-1.2,0.3-1.3,1c-1.2,6.2-5,5.5-10.1,5.5c-68.7-0.4-137.4-0.4-206.1-0.1
		c-19.5,0.1-38.9-0.4-58.4-1.6c-0.9-0.1-2,0.1-3.4,0.5c-0.9,0.3-1.3-0.1-1.2-1l0.3-5.3c0.1-1,0.8-1.7,1.8-1.8c0.8,0,1.5,0.2,2.1,0.6
		C510.2,755.3,510.7,755.4,511.3,755.3z" class="st131"></path>
	<path d="M290.8,762.7c2.3,6.2,3.5,12.7,3.6,19.5c0,0.7,0.5,1.3,1.1,1.4c4.6,1.1,9.3,1.1,14.3,0.1l3.2,4.8l-75-0.2
		c-0.5,0-0.9,0.1-1.3,0.3c-1.5,0.7-3,0.3-4.4-1.2c8.6-2.8,16.4-7.8,23.6-15.2c-1.2,0.9-1,1.8,0.8,2.8c-1,2.8-1.8,4.6-2.6,5.3
		c-3.4,2.8-2.6,4.1,2.2,4.1l33.6,0c1,0,1.7-0.8,1.7-1.7c0,0,0-0.1,0-0.1L290.8,762.7z" class="st128"></path>
	<path d="M499.8,765.1l3.6,6.3c0.3,0.6,1.1,0.8,1.6,0.5c0.3-0.2,0.6-0.5,0.6-0.9c0.1-0.9,0.4-1.8,0.9-2.5
		c0.7-1.1,2.2-1.4,3.3-0.7c1,0.7,1.4,2,0.8,3.1c-2.3,4.3-2.5,7.1-0.6,8.4l-4.7,8.4c-0.5,0.8-1.1,0.9-1.8,0.4
		c-2.8-2.2-4.6-4.7-5.1-7.4C497.4,772.7,497.9,767.6,499.8,765.1z" class="st120"></path>
	<path d="M514.4,778.6c2.5-3,3.2-5.1,2.2-6.5c1.5-1.5,3.5-2.2,6-2.2c96,0.8,183.6,0.8,262.7-0.1c3.5,0,6,1.5,7.5,4.8
		l0.7,1.5c1.4,3,0.4,4.4-2.8,4.4c-31.8-0.2-63.5-0.2-95,0.1c-58,0.5-116.3-0.4-170.4,0.4C521.1,780.8,517.5,780.1,514.4,778.6z" class="st115"></path>
	<path d="M489.9,770.5c2.7,1.4,5.5,4.8,8.5,10c0.6,2.8,2.3,5.2,5.1,7.4c0.8,0.6,1.4,0.5,1.8-0.4l4.7-8.4
		c2-4,4.2-6.4,6.5-7.2c1,1.4,0.3,3.6-2.2,6.5l-6.4,8.3c-0.4,0.6-0.3,0.8,0.4,0.7c4.6-0.8,10.9-1.2,18.8-1.2
		c91.8-0.1,183.4-0.1,275.1-0.1c0.5,0.7,1.2,1.1,2,1.1c0.7,0,0.9,0.3,0.6,0.9c-0.3,0.8-1.4,1.6-3.2,2.4l-294.8-0.1
		c-3.9,0.3-6.7,0.2-9-3.4C494.7,782.1,492,776.6,489.9,770.5z" class="st135"></path>
	<path d="M334.6,772.3l150.1,0.6c0.7,0,1.4,0.2,2,0.6c2.3,1.5,3.7,3.7,4.4,6.4c0.4,1.4-0.5,2.8-1.9,3.1
		c-0.2,0.1-0.4,0.1-0.6,0.1c-51.2,0.3-101.2,0.4-150,0.3c-3.9,0-7.5-0.9-10.9-2.8C329.7,776,332,773.2,334.6,772.3z" class="st112"></path>
	<path d="M128.7,786c20.2-0.7,41.4-0.1,63.4,1.8c11.2,1,23.3,0.9,36.2-0.3l4-0.2c1.4,1.5,2.9,1.9,4.4,1.2
		c0.4-0.2,0.8-0.3,1.3-0.3l75,0.2l6.4,3.4c-1.2,0.2-2.1,0.7-2.8,1.6c-0.4,0.5-0.9,0.8-1.6,0.8l-279.2,0.7c-0.4,0-0.8-0.4-0.8-0.8
		c0-0.3,0.2-0.5,0.4-0.7c9.2-4.4,17.2-7.3,27.9-7.4c9.7-0.2,19.6-0.2,29.5-0.1C104.8,784.9,116.8,784.9,128.7,786z" class="st130"></path>
	<path d="M505.9,793.2c-0.1,0.8-0.8,2-2.1,3.5l-181.3,0c-2.1,0-2.6-0.9-1.7-2.8c1.2-2.3,3.8-3.5,7.9-3.5
		c54.7,0,109.5,0,164.2,0.1c2.3,0,5.2,1.3,8.8,3.9c0.6,0.5,1.3,0.5,1.9,0C504.4,793.7,505.2,793.3,505.9,793.2z" class="st112"></path>
	<path d="M507.1,790.6l294.8,0.1l183,0l-9.1,0.8c-0.6,0.1-1,0.6-0.9,1.1c0,0.3,0.2,0.6,0.5,0.7l2.5,1.6
		c0.4,0.3,0.5,0.8,0.2,1.2c-0.2,0.2-0.4,0.4-0.7,0.4c-49,0.1-97.9,0.2-146.8,0.2c-5.9,0-18.8,0.6-28.3,0.2
		c-25.2-1.3-51,0.5-76.3,0.4c-74-0.2-148-0.4-222.1-0.7c1.3-1.6,2-2.7,2.1-3.5C506.9,793.2,507.2,792.4,507.1,790.6z" class="st128"></path>
</g>
</svg>
